<?xml version="1.0" encoding="utf-8"?>
<!-- Generator: Adobe Illustrator 23.1.0, SVG Export Plug-In . SVG Version: 6.00 Build 0)  -->
<svg version="1.1" id="圖層_1" xmlns="http://www.w3.org/2000/svg" xmlns:xlink="http://www.w3.org/1999/xlink" x="0px" y="0px"
	 viewBox="0 0 300 120" style="enable-background:new 0 0 300 120;" xml:space="preserve">
<style type="text/css">
	.st0{fill-rule:evenodd;clip-rule:evenodd;}
</style>
<path class="st0" d="M267.6,34.7l1.2-0.1l1.3,0.1L272,35l1.1,0.3l1,0.5l0.8,0.5l0.6,0.5l1,1.2l0.8,1.4l0.6,1.7l0.4,1.8v41.8h-14.1
	V50l-0.5-1.2l-1-0.9l-1.1-0.6l-1.3-0.2l-1.1,0.2l-1.3,0.8l-0.7,1l-0.7,1.3v34.4h-14.1V35.9h14.1v4.7l1.8-1.5l1.1-1l0.8-0.7l1-0.6
	l1.2-0.6l1.4-0.6l1.7-0.5L267.6,34.7L267.6,34.7z M119.9,35.9v38h10.1v10.8h-24.4V35.9H119.9L119.9,35.9z M181.5,35.9l5.4,31.1
	l6-31.1h11.1l-9.3,48.8h-21.1l-7.1-48.8H181.5z M234.5,35.9v10.8h-11.7v8.9h11.7V65h-11.7v8.9h11.7v10.8h-25.9V35.9H234.5z
	 M63.2,55.8v9.3H46.6v-9.3L63.2,55.8L63.2,55.8z M96.3,35.9v10.8h-12v8.9h12V65h-12v8.9h12v10.8h-26V35.9H96.3z M161.1,35.9v10.8
	h-11.9v8.9h11.9V65h-11.9v8.9h11.9v10.8H135V35.9H161.1L161.1,35.9z M7.5,47.6h16.6l3.8-4.2l2.1-1.9l2.6-2.1l2.2-1.5l2.8-1.7h-30
	V47.6z M44,35.7C34.7,38.1,25.7,47,22.9,53.6c-5.9,13.3-4.9,31.2-4.9,31.2s10.1-0.1,14.4-0.1c-0.2-12.7-0.1-20.5,1.7-26.6
	C36,52,44,47.9,44,47.9V35.7z M282.5,79.3c0-2.7,2-4.7,4.6-4.7c2.6,0,4.6,2,4.6,4.7c0,2.7-2,4.7-4.6,4.7
	C284.5,84.1,282.5,82.1,282.5,79.3L282.5,79.3z M287.1,85c3.1,0,5.7-2.4,5.7-5.7c0-3.2-2.6-5.6-5.7-5.6c-3.1,0-5.7,2.4-5.7,5.6
	C281.4,82.6,284,85,287.1,85z M285.9,79.8h1.1l1.7,2.8h1.1l-1.9-2.9c1-0.1,1.7-0.6,1.7-1.8c0-1.3-0.8-1.9-2.3-1.9h-2.5v6.5h1V79.8
	L285.9,79.8z M285.9,78.9v-2h1.3c0.7,0,1.4,0.2,1.4,1c0,1-0.7,1.1-1.6,1.1L285.9,78.9L285.9,78.9z"/>
</svg>
