<svg id="Component_7_1" data-name="Component 7 – 1" xmlns="http://www.w3.org/2000/svg" width="22" height="19.255" viewBox="0 0 22 19.255">
  <g id="heart-regular" transform="translate(0 0)">
    <path id="heart-regular-2" data-name="heart-regular" d="M19.7,33.367a6.472,6.472,0,0,0-8.7.645,6.468,6.468,0,0,0-8.7-.645,6.5,6.5,0,0,0-.455,9.5L9.384,50.55a2.257,2.257,0,0,0,3.231,0l7.537-7.678A6.506,6.506,0,0,0,19.7,33.367Zm-1.014,8.057L11.146,49.1a.177.177,0,0,1-.292,0L3.317,41.424a4.431,4.431,0,0,1,.314-6.475A4.356,4.356,0,0,1,9.5,35.4L11,36.933,12.5,35.4a4.354,4.354,0,0,1,5.865-.455,4.45,4.45,0,0,1,.314,6.48Z" transform="translate(0 -31.978)" />
  </g>
  <path id="heart-solid" d="M18.41,33.187a5.449,5.449,0,0,0-7.436.542l-.785.809L9.4,33.729a5.449,5.449,0,0,0-7.436-.542,5.722,5.722,0,0,0-.394,8.284l7.711,7.962a1.249,1.249,0,0,0,1.805,0L18.8,41.472a5.718,5.718,0,0,0-.391-8.284Z" transform="translate(1.012 -30.967)" fill="#743cf5"/>
</svg>
