<svg xmlns="http://www.w3.org/2000/svg" width="1090.476" height="368.332" viewBox="0 0 1090.476 368.332">
  <g id="bg-skate" transform="translate(-52.05 -50.827)">
    <g id="Group_7" data-name="Group 7" transform="translate(52.05 50.827)">
      <g id="Group_6" data-name="Group 6" transform="translate(0 61.095)">
        <path id="Path_34" data-name="Path 34" d="M385.17,72.441,281.815,87.557C224.722,149,130.55,224.878,52.05,268.247c55.665,36.141,88.491,65.054,124.174,97.58C243.3,320.049,323.2,244.164,370.306,189.956,393.783,162.685,484.831,82.634,484.831,69.382,484.831,62.154,406.58,82.079,385.17,72.441Z" transform="translate(-52.05 -67.766)" fill="#ccc"/>
        <path id="Path_35" data-name="Path 35" d="M403.21,231.878S233.853,111.026,212.447,83.322l-84.834,104.39c45.674,65.054,126.6,126.19,175.2,146.738C339.924,313.974,403.21,231.878,403.21,231.878Z" transform="translate(144.933 -27.213)" fill="#ccc"/>
      </g>
      <rect id="Rectangle_2" data-name="Rectangle 2" width="401.339" height="86.802" transform="translate(72.783)" fill="#ccc"/>
    </g>
    <g id="Group_8" data-name="Group 8" transform="translate(591.919 51.26)">
      <path id="Path_36" data-name="Path 36" d="M353.042,54.661C365.172,71.343,378.21,94.686,382.564,107c-17.854,3.773-43.473,9.6-60.437,13.62-3.207-14.969-11.29-35.679-20.732-52.39Z" transform="translate(58.091 -41.266)" fill="#ccc"/>
      <path id="Path_37" data-name="Path 37" d="M383.523,54.661C395.657,71.343,408.7,94.686,413.046,107c-17.85,3.773-43.47,9.6-60.433,13.62-3.206-14.969-11.289-35.679-20.732-52.39Z" transform="translate(137.562 -41.266)" fill="#ccc"/>
      <path id="Path_38" data-name="Path 38" d="M421.687,218.291V125.3l-.862-31.419-38.348-3.3-96.484-6.785V222.471c0,33.526-20.53,61.115-34.305,73.09L290.9,308.477c27.549,8.779,66.814,16.761,89.068,24.743C422.358,302.489,421.687,223.225,421.687,218.291Z" transform="translate(-71.489 34.68)" fill="#ccc"/>
      <path id="Path_39" data-name="Path 39" d="M370.533,146.789V92.513l-.859-31.423-52.047-3.3-81.6-6.785V189.686c0,33.522-20.527,61.115-34.3,73.086l39.214,12.916c27.549,8.783,65.623,16.765,87.874,24.747,42.392-30.734,41.717-110,41.717-114.933H658.74V146.789Z" transform="translate(-201.728 -50.797)" fill="#ccc"/>
      <rect id="Rectangle_3" data-name="Rectangle 3" width="163.936" height="28.469" transform="translate(34.017 0)" fill="#ccc"/>
    </g>
  </g>
</svg>
