<?xml version="1.0" encoding="utf-8"?>
<!-- Generator: Adobe Illustrator 23.1.0, SVG Export Plug-In . SVG Version: 6.00 Build 0)  -->
<svg version="1.1" id="圖層_1" xmlns="http://www.w3.org/2000/svg" xmlns:xlink="http://www.w3.org/1999/xlink" x="0px" y="0px"
	 viewBox="0 0 300 120" style="enable-background:new 0 0 300 120;" xml:space="preserve">
<g>
	<path d="M114.4,43.4h-7.7c-0.9,0-1.6,0.5-2.1,1.2l-8.8,15.4c-0.5,0.7-0.5,1.6,0,2.3s1.2,1.2,2.1,1.2h16.5c1.4,0,2.3-0.9,2.3-2.3
		V45.7C116.7,44.5,115.6,43.4,114.4,43.4z M112.1,58.7h-10.2l6.3-10.7h4C112.1,48,112.1,58.7,112.1,58.7z"/>
	<path d="M88.1,95.7h4.7c-0.2,0.7-0.2,1.6-0.2,2.3c0,7.4,6.1,13.5,13.3,13.5c7.2,0,13.3-6.1,13.3-13.5c0-0.7,0-1.6-0.2-2.3h43.5
		c-0.2,0.7-0.2,1.6-0.2,2.3c0,7.4,6.1,13.5,13.3,13.5c7.2,0,13.3-6.1,13.3-13.5c0-0.7,0-1.6-0.2-2.3h7c1.4,0,2.3-0.9,2.3-2.3V78.3
		l0,0V45.7l0,0l0,0V12.9c0-1.4-0.9-2.3-2.3-2.3h-36.1h-35.8c-1.4,0-2.3,0.9-2.3,2.3v21.2h-19.5c-0.9,0-1.6,0.5-2.1,1.2L86,58.3
		c-0.2,0.2-0.2,0.7-0.2,1.2v18.9l0,0l0,0v15.1C85.8,94.8,86.7,95.7,88.1,95.7z M168.4,75.9h-6.7V48h31.2v28.2L168.4,75.9z M125.8,48
		H157v28.2h-31.2V48z M105.8,106.9c-4.7,0-8.6-4-8.6-8.8s4-8.8,8.6-8.8c4.7,0,8.6,4,8.6,8.8S110.5,106.9,105.8,106.9z M175.2,106.9
		c-4.7,0-8.6-4-8.6-8.8s4-8.8,8.6-8.8c4.7,0,8.6,4,8.6,8.8S180,106.9,175.2,106.9z M186.6,91.1c-2.3-4-6.5-6.5-11.2-6.5
		s-8.8,2.6-11.2,6.5H117c-2.3-4-6.5-6.5-11.2-6.5c-4.7,0-8.8,2.6-11.2,6.5h-4.2V80.6h76.8h25.6v10.5H186.6z M192.8,43.4h-31.2V15.2
		h31.2V43.4z M125.8,15.2H157v28.2h-31.2v-6.7V15.2z M90.4,60.1L103,38.7h18.2v6.7l0,0v30.5H90.4V60.1z"/>
</g>
</svg>
