<?xml version="1.0" encoding="utf-8"?>
<!-- Generator: Adobe Illustrator 23.1.0, SVG Export Plug-In . SVG Version: 6.00 Build 0)  -->
<svg version="1.1" id="圖層_1" xmlns="http://www.w3.org/2000/svg" xmlns:xlink="http://www.w3.org/1999/xlink" x="0px" y="0px"
	 viewBox="0 0 300 120" style="enable-background:new 0 0 300 120;" xml:space="preserve">
<style type="text/css">
	.st0{fill-rule:evenodd;clip-rule:evenodd;}
</style>
<g>
	<path class="st0" d="M7.3,41.8H292V23H7.3V41.8L7.3,41.8z"/>
	<path class="st0" d="M39.3,85.1h6.8l0-15h14.7v-6.8H46.1v-6.7h14.8v-6.8H39.3V85.1z M81.5,68.6c0-1.5,0.2-4.7-3.8-6.9
		c-4.3-2.4-11.2-0.5-13.2,0.3v5.3c2.9-1.8,7-2.4,9.5-1.2c2.3,1.1,2.1,3,1.7,3.8c-0.5-0.1-2.5-0.8-6.2-0.5c-4.5,0.4-7.7,3.8-7.1,9.7
		c0.5,5.1,5.9,6.1,8.2,6.1c3.2,0,5.7-1.8,5.7-1.8c0.1,0.8,0.3,1.3,0.7,1.8h6c-0.9-1-1.4-3.2-1.4-4.1C81.6,80.1,81.5,70.1,81.5,68.6
		L81.5,68.6z M72,80.3c-2.3,0.1-3.7-1.5-3.7-3.6c0-2.1,2-3.5,3.8-3.5c2.4,0,3.5,0.9,3.5,0.9s0,3.9,0.1,4.6
		C74.9,79.6,74.1,80.2,72,80.3z M227.4,68.6c0-1.5,0.2-4.7-3.8-6.9c-4.3-2.4-11.2-0.5-13.2,0.3v5.3c2.9-1.8,7-2.4,9.5-1.2
		c2.3,1.1,2.1,3,1.7,3.8c-0.5-0.1-2.5-0.8-6.2-0.5c-4.5,0.4-7.7,3.8-7.1,9.7c0.5,5.1,5.9,6.1,8.2,6.1c3.2,0,5.7-1.8,5.7-1.8
		c0.1,0.8,0.3,1.3,0.7,1.8h6c-0.9-1-1.4-3.2-1.4-4.1S227.4,70.1,227.4,68.6L227.4,68.6z M217.8,80.3c-2.3,0.1-3.7-1.5-3.7-3.6
		c0-2.1,2-3.5,3.8-3.5c2.3,0,3.5,0.9,3.5,0.9s0,3.9,0.1,4.6C220.7,79.6,220,80.2,217.8,80.3z M112.6,60.7c-5.1-0.1-7.4,2.8-7.4,2.8
		s-2-2.8-6.7-2.8c-3.4,0-5.5,2.1-5.5,2.1V61h-6.4l0,24.1h6.4V68.6c0.3-2,4.5-2.9,5.7-1.6c1.3,1.3,1.3,1.7,1.3,3.3v14.7h6.5V68.6
		c0-0.8,2.9-2.8,5.1-1.7c2,1,2.1,1.9,2.1,3.3v14.9h6.2V69.2C119.8,67.6,120.2,60.9,112.6,60.7L112.6,60.7z M125,85.1h6.1V60.7H125
		V85.1z M136.4,85.1h6.1V49.8h-6.1V85.1L136.4,85.1z M157.9,74.6l-5.7-13.9h-6.4l9.1,22.2l-3.1,8.5l6.4,0l11.1-30.8h-6.3L157.9,74.6
		L157.9,74.6z M188.3,60.7L179,49.8h-6.5v35.3h6.1V59.6l9.6,11.4l9.6-11.3v25.4h6.2V49.8h-6.6L188.3,60.7z M238.1,63.6v-2.9H232
		v24.4h6.1V69.5c0,0,3.9-5.2,8.6-1.6v-6.5C244.4,60.4,241.5,59.8,238.1,63.6L238.1,63.6z M263.7,66.2v-5.5h-5.5v-9.2l-5.8,2.4v6.8
		h-3.6v5.5h3.7v10.9c0,3.1,1.6,6.3,4.5,7.3c2.5,0.9,3.9,0.9,6.7,0.1v-5.6c-1.2,0.3-4.3,0.8-5.1-1.5c-0.5-1.5-0.4-2-0.4-3.7v-7.6
		L263.7,66.2L263.7,66.2z M128.1,49.6c-2.2,0-4,1.7-4,3.8s1.7,4,3.8,4c0,0,0.1,0,0.2,0c2.2,0,3.9-1.8,3.8-4
		C131.9,51.4,130.2,49.7,128.1,49.6z M292,92.9v5.7H7.3v-5.7H292z"/>
</g>
</svg>
