<?xml version="1.0" encoding="utf-8"?>
<!-- Generator: Adobe Illustrator 24.0.1, SVG Export Plug-In . SVG Version: 6.00 Build 0)  -->
<svg version="1.1" id="圖層_1" xmlns="http://www.w3.org/2000/svg" xmlns:xlink="http://www.w3.org/1999/xlink" x="0px" y="0px"
	 viewBox="0 0 20 20" style="enable-background:new 0 0 20 20;" xml:space="preserve">
<style type="text/css">
	.st0{fill:#F4F4F4;}
</style>
<path id="Path_105" class="st0" d="M19.9,5.9L19.9,5.9c0.2-3.1-2.2-5.7-5.2-5.8c-0.2,0-0.4,0-0.6,0C12.5,0,7.5,0,5.9,0.1
	c-3-0.2-5.6,2.2-5.8,5.2c0,0.2,0,0.4,0,0.6C0,7.5,0,12.5,0.1,14.1c-0.2,3.1,2.2,5.7,5.3,5.8c0.2,0,0.4,0,0.5,0
	c1.6,0.1,6.6,0.1,8.2,0c3.1,0.2,5.7-2.2,5.8-5.3c0-0.2,0-0.4,0-0.6C20,12.5,20,7.5,19.9,5.9z M17.9,15.9c-0.3,0.9-1,1.6-1.9,1.9
	c-0.9,0.3-1.9,0.4-2.8,0.4v-7.1h1.7l0.3-2.1h-2V7.7c-0.1-0.6,0.4-1.1,1-1.2c0.1,0,0.2,0,0.2,0h0.9V4.7c-0.5-0.1-1.1-0.1-1.7-0.1
	c-1.4-0.1-2.7,1-2.8,2.4c0,0.2,0,0.3,0,0.5v1.6H8.9v2.1h1.9v7.1c-0.3,0-0.6,0-0.8,0c-1.5,0-4.6,0.1-5.9-0.4c-0.9-0.3-1.6-1-1.9-1.9
	c-0.5-1.3-0.4-4.5-0.4-5.9S1.6,5.4,2.1,4.1c0.3-0.9,1-1.6,1.9-1.9C5.4,1.6,8.5,1.7,10,1.7s4.6-0.1,5.9,0.4c0.9,0.3,1.6,1,1.9,1.9
	c0.5,1.3,0.4,4.5,0.4,5.9S18.4,14.6,17.9,15.9L17.9,15.9z"/>
</svg>
