<svg id="Group_445" data-name="Group 445" xmlns="http://www.w3.org/2000/svg" width="54" height="54" viewBox="0 0 54 54">
  <circle id="Ellipse_15" data-name="Ellipse 15" cx="27" cy="27" r="27" fill="#999"/>
  <path id="user-solid" d="M12.242,13.99a7,7,0,1,0-7-7A6.995,6.995,0,0,0,12.242,13.99Zm4.9,1.749h-.913a9.513,9.513,0,0,1-7.968,0H7.345A7.347,7.347,0,0,0,0,23.084v2.273a2.624,2.624,0,0,0,2.623,2.623H21.86a2.624,2.624,0,0,0,2.623-2.623V23.084A7.347,7.347,0,0,0,17.138,15.739Z" transform="translate(14.666 10.783)" fill="#fff"/>
</svg>
