<svg xmlns="http://www.w3.org/2000/svg" xmlns:xlink="http://www.w3.org/1999/xlink" width="1106" height="599.867" viewBox="0 0 1106 599.867">
  <defs>
    <clipPath id="clip-path">
      <rect width="1094" height="598.867" fill="none"/>
    </clipPath>
    <clipPath id="clip-path-2">
      <rect width="1094" height="581.867" fill="none"/>
    </clipPath>
  </defs>
  <g id="裝飾線" transform="translate(-139.252 -1190.066)">
    <g id="Repeat_Grid_6" data-name="Repeat Grid 6" transform="translate(151.252 1191.066)" clip-path="url(#clip-path)">
      <g transform="translate(-261.251 -3943.066)">
        <line id="Line_7" data-name="Line 7" y1="581" x2="1014" transform="translate(261.5 3943.5)" fill="none" stroke="#707070" stroke-width="3"/>
      </g>
      <g transform="translate(-168.251 -3943.066)">
        <line id="Line_7-2" data-name="Line 7" y1="581" x2="1014" transform="translate(261.5 3943.5)" fill="none" stroke="#707070" stroke-width="3"/>
      </g>
      <g transform="translate(-75.251 -3943.066)">
        <line id="Line_7-3" data-name="Line 7" y1="581" x2="1014" transform="translate(261.5 3943.5)" fill="none" stroke="#707070" stroke-width="3"/>
      </g>
      <g transform="translate(17.749 -3943.066)">
        <line id="Line_7-4" data-name="Line 7" y1="581" x2="1014" transform="translate(261.5 3943.5)" fill="none" stroke="#707070" stroke-width="3"/>
      </g>
      <g transform="translate(110.749 -3943.066)">
        <line id="Line_7-5" data-name="Line 7" y1="581" x2="1014" transform="translate(261.5 3943.5)" fill="none" stroke="#707070" stroke-width="3"/>
      </g>
      <g transform="translate(203.749 -3943.066)">
        <line id="Line_7-6" data-name="Line 7" y1="581" x2="1014" transform="translate(261.5 3943.5)" fill="none" stroke="#707070" stroke-width="3"/>
      </g>
      <g transform="translate(296.749 -3943.066)">
        <line id="Line_7-7" data-name="Line 7" y1="581" x2="1014" transform="translate(261.5 3943.5)" fill="none" stroke="#707070" stroke-width="3"/>
      </g>
      <g transform="translate(389.749 -3943.066)">
        <line id="Line_7-8" data-name="Line 7" y1="581" x2="1014" transform="translate(261.5 3943.5)" fill="none" stroke="#707070" stroke-width="3"/>
      </g>
      <g transform="translate(482.749 -3943.066)">
        <line id="Line_7-9" data-name="Line 7" y1="581" x2="1014" transform="translate(261.5 3943.5)" fill="none" stroke="#707070" stroke-width="3"/>
      </g>
      <g transform="translate(575.749 -3943.066)">
        <line id="Line_7-10" data-name="Line 7" y1="581" x2="1014" transform="translate(261.5 3943.5)" fill="none" stroke="#707070" stroke-width="3"/>
      </g>
      <g transform="translate(668.749 -3943.066)">
        <line id="Line_7-11" data-name="Line 7" y1="581" x2="1014" transform="translate(261.5 3943.5)" fill="none" stroke="#707070" stroke-width="3"/>
      </g>
      <g transform="translate(761.749 -3943.066)">
        <line id="Line_7-12" data-name="Line 7" y1="581" x2="1014" transform="translate(261.5 3943.5)" fill="none" stroke="#707070" stroke-width="3"/>
      </g>
    </g>
    <g id="Repeat_Grid_8" data-name="Repeat Grid 8" transform="translate(139.252 1190.066)" clip-path="url(#clip-path-2)">
      <g transform="translate(-261.251 -3943.066)">
        <line id="Line_7-13" data-name="Line 7" y1="581" x2="1014" transform="translate(261.5 3943.5)" fill="none" stroke="#75fb4e" stroke-width="3"/>
      </g>
      <g transform="translate(-168.251 -3943.066)">
        <line id="Line_7-14" data-name="Line 7" y1="581" x2="1014" transform="translate(261.5 3943.5)" fill="none" stroke="#75fb4e" stroke-width="3"/>
      </g>
      <g transform="translate(-75.251 -3943.066)">
        <line id="Line_7-15" data-name="Line 7" y1="581" x2="1014" transform="translate(261.5 3943.5)" fill="none" stroke="#75fb4e" stroke-width="3"/>
      </g>
      <g transform="translate(17.749 -3943.066)">
        <line id="Line_7-16" data-name="Line 7" y1="581" x2="1014" transform="translate(261.5 3943.5)" fill="none" stroke="#75fb4e" stroke-width="3"/>
      </g>
      <g transform="translate(110.749 -3943.066)">
        <line id="Line_7-17" data-name="Line 7" y1="581" x2="1014" transform="translate(261.5 3943.5)" fill="none" stroke="#75fb4e" stroke-width="3"/>
      </g>
      <g transform="translate(203.749 -3943.066)">
        <line id="Line_7-18" data-name="Line 7" y1="581" x2="1014" transform="translate(261.5 3943.5)" fill="none" stroke="#75fb4e" stroke-width="3"/>
      </g>
      <g transform="translate(296.749 -3943.066)">
        <line id="Line_7-19" data-name="Line 7" y1="581" x2="1014" transform="translate(261.5 3943.5)" fill="none" stroke="#75fb4e" stroke-width="3"/>
      </g>
      <g transform="translate(389.749 -3943.066)">
        <line id="Line_7-20" data-name="Line 7" y1="581" x2="1014" transform="translate(261.5 3943.5)" fill="none" stroke="#75fb4e" stroke-width="3"/>
      </g>
      <g transform="translate(482.749 -3943.066)">
        <line id="Line_7-21" data-name="Line 7" y1="581" x2="1014" transform="translate(261.5 3943.5)" fill="none" stroke="#75fb4e" stroke-width="3"/>
      </g>
      <g transform="translate(575.749 -3943.066)">
        <line id="Line_7-22" data-name="Line 7" y1="581" x2="1014" transform="translate(261.5 3943.5)" fill="none" stroke="#75fb4e" stroke-width="3"/>
      </g>
      <g transform="translate(668.749 -3943.066)">
        <line id="Line_7-23" data-name="Line 7" y1="581" x2="1014" transform="translate(261.5 3943.5)" fill="none" stroke="#75fb4e" stroke-width="3"/>
      </g>
      <g transform="translate(761.749 -3943.066)">
        <line id="Line_7-24" data-name="Line 7" y1="581" x2="1014" transform="translate(261.5 3943.5)" fill="none" stroke="#75fb4e" stroke-width="3"/>
      </g>
    </g>
  </g>
</svg>
