<?xml version="1.0" encoding="utf-8"?>
<!-- Generator: Adobe Illustrator 24.0.1, SVG Export Plug-In . SVG Version: 6.00 Build 0)  -->
<svg version="1.1" id="圖層_1" xmlns="http://www.w3.org/2000/svg" xmlns:xlink="http://www.w3.org/1999/xlink" x="0px" y="0px"
	 viewBox="0 0 20 20" style="enable-background:new 0 0 20 20;" xml:space="preserve">
<style type="text/css">
	.st0{fill:#F4F4F4;}
</style>
<path id="instagram-brands" class="st0" d="M10,4.8c-2.9,0-5.2,2.3-5.2,5.2c0,2.9,2.3,5.2,5.2,5.2s5.2-2.3,5.2-5.2l0,0
	C15.2,7.2,12.9,4.8,10,4.8C10,4.8,10,4.8,10,4.8z M10,13.4c-1.9,0-3.4-1.5-3.4-3.4c0-1.9,1.5-3.4,3.4-3.4s3.4,1.5,3.4,3.4l0,0
	C13.4,11.9,11.9,13.4,10,13.4z M16.6,4.6c0,0.7-0.5,1.2-1.2,1.2s-1.2-0.5-1.2-1.2c0-0.7,0.5-1.2,1.2-1.2C16,3.4,16.6,4,16.6,4.6
	L16.6,4.6z M19.9,5.9c0-1.6-0.5-3.1-1.6-4.2c-1.1-1.1-2.6-1.6-4.2-1.6C12.5,0,7.5,0,5.9,0.1C4.3,0,2.8,0.6,1.7,1.7
	C0.6,2.8,0,4.3,0.1,5.9C0,7.5,0,12.5,0.1,14.1c0,1.6,0.5,3.1,1.6,4.2c1.1,1.1,2.6,1.6,4.2,1.6c1.7,0.1,6.6,0.1,8.2,0
	c1.6,0,3.1-0.5,4.2-1.6c1.1-1.1,1.6-2.6,1.6-4.2C20,12.5,20,7.5,19.9,5.9L19.9,5.9z M17.9,15.9c-0.3,0.9-1,1.6-1.9,1.9
	c-1.3,0.5-4.5,0.4-5.9,0.4s-4.6,0.1-5.9-0.4c-0.9-0.3-1.6-1-1.9-1.9c-0.5-1.3-0.4-4.5-0.4-5.9S1.6,5.4,2.2,4.1
	c0.3-0.9,1-1.6,1.9-1.9C5.4,1.6,8.5,1.7,10,1.7s4.6-0.1,5.9,0.4c0.9,0.3,1.6,1,1.9,1.9c0.5,1.3,0.4,4.5,0.4,5.9S18.4,14.6,17.9,15.9
	z"/>
</svg>
