<svg xmlns="http://www.w3.org/2000/svg" width="131.407" height="102.224" viewBox="0 0 131.407 102.224">
  <g id="Group_2693" data-name="Group 2693" transform="translate(-34.024 -35.681)">
    <path id="Path_2431" data-name="Path 2431" d="M165.159,74.24a17.216,17.216,0,0,0-1.5-7.13l-.012-.027-.006-.045a10.145,10.145,0,0,0-1.359-3l-.033-.063-.006-.105-.015-.538.054.211a1.658,1.658,0,0,1-.12-.469l.22.4-.526-.271-.093-.048-.072-.111-.971-1.486.057.075c-.469-.553-.644-1-.9-1.053l-.388-.078.1-.626.009-.051-.03.093c-.021,0,.006.156.039.177l-.042-.051a12.745,12.745,0,0,0-2.24-2.358l-.039-.039h0l-.027-.018-.06-.087c-.962-1.383-2.463-2.391-3.837-3.771l.421.244a2.858,2.858,0,0,1-1.176-.641c-.2-.165-.46-.319-.74-.517l-1.576-1.095a21.427,21.427,0,0,0-3.14-1.871l.481.111h-.364l-.319-.241a13.723,13.723,0,0,0-3.648-1.9l-.1-.036-.147-.1a12.4,12.4,0,0,0-4.273-1.813l-1.044-1.332.208.728c.069.129.174.144-.078.051a3.181,3.181,0,0,1-1.269-.731l.767.412-.977-.186-.7-.229-1.38-.451c-.917-.307-1.843-.589-2.776-.857-1.868-.532-3.75-1.053-5.66-1.492-1.925-.43-3.825-.869-5.732-1.167a43.762,43.762,0,0,1-6.024-1.233l.5.069-1.78.066-.211.006-.138-.036a43.073,43.073,0,0,0-7.335-.74q-3.753-.167-7.509-.072t-7.509.418l-3.744.376c-1.23.177-2.421.442-3.636.659l.962-2.325-.051-.105L82.65,40.26l-.033,0-1.558.114-.042-1.618a1.407,1.407,0,0,1,.024-.331c.075-.108-.012-.743,1.113-1.164a1.429,1.429,0,0,1,1.507.505,1.218,1.218,0,0,1,.156.25l1.032,1.949-2.222.223A30.647,30.647,0,0,0,75.79,41.5l-.361.075a.133.133,0,0,0,.183-.078l-.758.244a15.224,15.224,0,0,0-3.94.929l-4.267,1.3c-1.383.448-2.746.938-4.075,1.492-.662.277-1.314.571-1.961.878l-.956.481-.481.256-.244.132-.123.069-.063.033-.03.015-.015.009-.009,0,0,0A1.292,1.292,0,0,0,59,47.111l-.439.286a39.123,39.123,0,0,0-11.879,7.9l-.15.141-.183.1-.752.4.5-.424c-1.311,1.7-2.737,2.857-3.4,4.186l.171-.7-.244.977-.412.265a3.109,3.109,0,0,0-.827,1.143l-1.032,1.88-2.042,3.726.183-.761.021.758.012.364-.153.319a15.449,15.449,0,0,0-1.05,6.661l-.406,1.022c.211-.192.147-.629.186-.186.069.523.048.851.081,1.2a7.711,7.711,0,0,1-.2,2.689l.06-.517.123,2.132-1.573-1.413.271-.015,1.5-.072.075,1.5.069,1.332.018.361-.117.259c-.165.364-.217.517-.135.247.03-.31.015-.036.021.012l.006.274.027,1.086.051,2.177.1,4.352.006.18L37.47,96.8l-.009,2.9a10.822,10.822,0,0,0,.235,2.535,41.93,41.93,0,0,0,1.576,5.338,14.1,14.1,0,0,0,2.559,4.562l.06.066.024.036,0,0,.253.379.042.409.018.156-.3-.713c.9,1.251,1.4,2.135,2.012,2.37l1.14.439-.322,1.287,0,.009-.217-1.215.884,1.293-.31-.331.286.223.183.147.132.192a10.677,10.677,0,0,0,3.705,3.323l-.6-.186a1.488,1.488,0,0,1,.574.177l.3.162.2.271a2.158,2.158,0,0,0,1.013.737l-2.051,1.4,2.448-1.17a28.4,28.4,0,0,0,7.1,4.168l.376.156.159.22a5.015,5.015,0,0,0,1.7.791l-.58,2.893.589-2.89a26.635,26.635,0,0,0,5.164,2.048l.283.051.241.156a6.3,6.3,0,0,0,2.18.74l-.289-.03,1.086.463s-.048-.006.15.045.541.066,1.047.174l.2.042.2.111.839.472-.854-.189a4.146,4.146,0,0,1,1.844.367c.367.138.391.1.325.108l1.868,1.459-1.107-1.45a74.063,74.063,0,0,0,18.255,2.926l-1.477,1.113.024-.093.289-1.074,1.125-.042h.039l2.968-.108-1.684,2.457-.072.108-.695-2.262c.027.009.042.03.06.066s.259.03.376.048l.884.063,1.765.1c1.176.048,2.358.084,3.537.087,2.361.018,4.725-.063,7.085-.214s4.722-.379,7.076-.668c2.328-.355,4.89-.454,6.73-1.143l.908-.045a.9.9,0,0,0-.785.075l.511-.141a47.365,47.365,0,0,0,8.4-1.774c2.851-.776,5.612-1.762,8.393-2.671l-.424.223a22.579,22.579,0,0,1,3.952-1.949l.962-.49.974-.427a3.234,3.234,0,0,0,1.182-.752l1.131-.517a2.466,2.466,0,0,0,.514-.283l1.2-.743,2.4-1.489-.174.123L151.623,120c.791-.671,1.6-1.275,2.379-2.015.776-.707,1.555-1.35,2.234-2.039a14.105,14.105,0,0,0,.95-1.059l.415-.553.192-.283.084-.135.042-.066.021-.033.012-.018.006-.009,0,0v0l.794-.659-.671.463a29.258,29.258,0,0,0,2.938-4.138,12.092,12.092,0,0,0,1.666-4.517l.015-.105.009-.036a32.218,32.218,0,0,0,.908-4.261,25.443,25.443,0,0,0,.15-4.37v-.12l.057-.177c.027-.09.024,0,.036-.015l-.1-.424.74-12.414.054-.905.517.716.024.033-.562.15A36.543,36.543,0,0,0,165.159,74.24Zm0,0a36.842,36.842,0,0,1,.009,8.86l-.084.722-.481-.571-.03-.036.571-.192.054,12.52-.1-.421a1.449,1.449,0,0,1,.1,1.3l.054-.3a27.188,27.188,0,0,1,.114,4.586,34.565,34.565,0,0,1-.686,4.559l.024-.138a14.206,14.206,0,0,1-1.615,5.434,32.067,32.067,0,0,1-2.884,4.646l-.671.463c1.582-1.311.436-.361.791-.653l0,0,0,.006-.006.012-.015.027-.027.051-.054.1-.111.2-.229.385c-.153.25-.313.5-.481.731a17.088,17.088,0,0,1-1.068,1.347c-.749.839-1.519,1.612-2.286,2.319-1.519,1.416-3.209,2.767-4.836,4.117l-.084.072-.09.054-2.409,1.483-1.2.743a3.923,3.923,0,0,1-2.081.731l1.128-.517a6.158,6.158,0,0,1-2.237,1.531l-.926.4-.884.457a23.27,23.27,0,0,0-3.492,1.663l-.186.144-.238.078c-2.842.926-5.66,1.931-8.523,2.707a50.034,50.034,0,0,1-8.938,1.877l.505-.141a2.31,2.31,0,0,1-1.284.123l.908-.045a17.3,17.3,0,0,1-3.837.857l-3.579.454c-2.409.292-4.824.532-7.251.683s-4.86.238-7.3.22c-1.218,0-2.436-.039-3.654-.09l-1.825-.1-.914-.063a2.974,2.974,0,0,1-.508-.06,7.2,7.2,0,0,1-.785-.247l-1.78-.674,1.086-1.585.06-.087,1.281,2.349-.039,0,1.41-1.116-.024.1-.3,1.134-1.173-.018a77.011,77.011,0,0,1-19-3.031l-1.11-1.453,1.871,1.459a3.459,3.459,0,0,1-2.1-.207,3.451,3.451,0,0,0-.562-.186l-.854-.186-.839-.469.4.153-1.019-.168a3.225,3.225,0,0,1-1.681-.9l1.083.46.126.054-.415-.081a9.087,9.087,0,0,1-3.212-1.149l.523.208a28.353,28.353,0,0,1-5.777-2.234l.586-2.887-.58,2.89a6.823,6.823,0,0,1-2.755-1.534l.535.373a31.5,31.5,0,0,1-7.84-4.61l2.448-1.17-2.048,1.4a5.187,5.187,0,0,1-2.346-1.756l.5.433a1.479,1.479,0,0,0,.574.171l-.6-.186a13.71,13.71,0,0,1-4.725-4.261l.316.34-.286-.226-.18-.141-.129-.189-.884-1.293-.382-.559.162-.656,0-.009.818,1.726a5.544,5.544,0,0,1-2-1.681l-1.113-1.576-.265-.367-.036-.343-.036-.34.3.788,0,0,.087.105a17.031,17.031,0,0,1-3.137-5.506,44.081,44.081,0,0,1-1.711-5.81,13.718,13.718,0,0,1-.292-3.242l.009-2.914.006-5.786.009.177-.111-4.526-.054-2.265-.027-1.134-.006-.283a2.371,2.371,0,0,1,.03-.541,2.761,2.761,0,0,1,.286-.776l-.1.617-.066-1.335,1.573,1.425-.271.012-1.489.075-.084-1.489-.123-2.132-.015-.274L34.1,78.2a4.955,4.955,0,0,0,.081-1.663c-.03-.376-.024-.782-.06-.983a3.472,3.472,0,0,1-.021-.935,2.4,2.4,0,0,1,.62-1.317l-.4,1.019a18.226,18.226,0,0,1,1.335-7.93l-.141.686-.024-.761-.012-.409.2-.355,2.057-3.75,1.019-1.859a5.859,5.859,0,0,1,1.768-2.183L39.858,59l.174-.7c1.1-2.042,2.71-3.287,3.66-4.592l.189-.262.31-.162.746-.4-.334.244a42.082,42.082,0,0,1,12.79-8.5l-.439.283.337-.235.015-.009.03-.018.06-.033.123-.066.244-.132.505-.268,1.038-.523c.7-.331,1.4-.65,2.108-.944,1.422-.592,2.86-1.11,4.307-1.579l4.27-1.3a17.743,17.743,0,0,1,4.734-1.071l-.758.244a4.51,4.51,0,0,1,1.215-.4l-.361.075a33.532,33.532,0,0,1,7.5-1.45L81.131,39.37a1.8,1.8,0,0,0,.18.283,1.469,1.469,0,0,0,1.531.538c1.131-.409,1.056-1.032,1.137-1.128a1.62,1.62,0,0,0,.045-.3l-1.6-1.5.036,0-1.016,2.517-.217-.235L79.516,37.7l2.677-.478c1.284-.229,2.577-.508,3.855-.692l3.831-.382q3.834-.338,7.693-.427t7.711.072a45.46,45.46,0,0,1,7.792.8l-.349-.03,1.78-.066.256-.009.247.075a41.356,41.356,0,0,0,5.615,1.137c2.015.316,3.976.77,5.921,1.2,1.952.451,3.916.9,5.849,1.486.968.295,1.931.6,2.89.944.481.159.95.358,1.422.544l.692.274.481.1.77.412a1.319,1.319,0,1,1,.28.126,2.782,2.782,0,0,1,1.341,1.08l1.119,1.883-.908-1.158-1.047-1.329a14.969,14.969,0,0,1,5.016,2.49l-.241-.129a15.938,15.938,0,0,1,4.1,2.478l-.677-.241h.271l.211.114a23.416,23.416,0,0,1,3.311,2.249l1.5,1.191c.232.186.514.379.794.635a1.576,1.576,0,0,0,.451.337l.286.09.132.156c1.119,1.3,2.671,2.463,3.729,4.177l-.087-.105h0l-.036-.036a14.216,14.216,0,0,1,2.3,2.728l-.042-.048a.909.909,0,0,1,.2.818l-.03.093v0l.009.009-.292-.7c.794.412.938,1.146,1.185,1.386l.03.03.027.045.881,1.546-.165-.159.505.307.223.4c.021,0,.015-.009-.009.006l.057.211-.024.538-.036-.168a10.4,10.4,0,0,1,1.176,3.278l-.015-.072A17.509,17.509,0,0,1,165.159,74.24Z" transform="translate(0)" fill="#100e0f"/>
    <path id="Path_2432" data-name="Path 2432" d="M37.037,65.287S35.182,87.445,76.31,94.211s66.871-12.739,66.871-12.739a20.319,20.319,0,0,0,7.163-18.044C148.886,51.886,121.42,36.63,92.9,37.556S40.755,48.039,37.037,65.287Z" transform="translate(6.024 3.682)" fill="#100e0f"/>
    <path id="Path_2433" data-name="Path 2433" d="M44.206,58.7S43.081,72.8,68,77.11,108.506,69,108.506,69a13.183,13.183,0,0,0,4.34-11.482c-.884-7.347-17.521-17.058-34.8-16.465S46.456,47.726,44.206,58.7Z" transform="translate(20.424 10.735)" fill="#fff"/>
    <path id="Path_2434" data-name="Path 2434" d="M64.045,67.644a36.74,36.74,0,0,1-13.452-5.488,9.946,9.946,0,0,1-2.616-2.881,5.432,5.432,0,0,1-.559-4.135,8.3,8.3,0,0,1,2.06-3.47,20.573,20.573,0,0,1,2.809-2.559c4.045-3.1,8.932-4.67,13.759-5.609a49.243,49.243,0,0,1,7.371-.8,40.759,40.759,0,0,1,7.446.613,48.644,48.644,0,0,1,7.218,1.735,24.641,24.641,0,0,1,6.86,3.275,11.9,11.9,0,0,1,4.815,6.357,9.328,9.328,0,0,1,.12,4.192,7.87,7.87,0,0,1-2.084,3.645A16.791,16.791,0,0,1,91.1,66.23a42.832,42.832,0,0,1-7.182,1.558,76.706,76.706,0,0,1-14.477.34,94.691,94.691,0,0,0,14.234-1.8,42.488,42.488,0,0,0,6.794-1.895,14.787,14.787,0,0,0,5.639-3.5,5.591,5.591,0,0,0,1.113-5.54,9.208,9.208,0,0,0-3.9-4.731c-3.666-2.466-8.363-3.609-12.935-4.385a38.468,38.468,0,0,0-6.89-.644,51.944,51.944,0,0,0-6.956.659,32.451,32.451,0,0,0-12.9,4.679c-1.843,1.263-3.756,2.854-4.4,4.682-.7,1.853.58,3.891,2.3,5.368C55.008,64.092,59.58,65.966,64.045,67.644Z" transform="translate(26.517 14.064)" fill="#100e0f"/>
    <path id="Path_2435" data-name="Path 2435" d="M37.01,49.848c2.553,4.848,6.767,9.23,11.29,12.766a62.308,62.308,0,0,0,15.247,8.5c10.947,4.255,22.826,6.009,34.657,6.072a107.225,107.225,0,0,0,35.014-5.118c11.1-3.843,21.96-10.048,28.867-19.86-6.7,9.966-17.5,16.456-28.618,20.57a108.431,108.431,0,0,1-35.261,5.912,98.947,98.947,0,0,1-35.466-5.47c-11.256-4.225-22.032-11.07-28.458-22.1Z" transform="translate(0.518 28.437)" fill="#100e0f"/>
    <path id="Path_2436" data-name="Path 2436" d="M52.036,60.029a42.328,42.328,0,0,1,1.2,10.616,41.756,41.756,0,0,1-1.2,10.613,41.888,41.888,0,0,1-1.2-10.613A42.324,42.324,0,0,1,52.036,60.029Z" transform="translate(33.747 48.874)" fill="#100e0f"/>
    <path id="Path_2437" data-name="Path 2437" d="M53.8,60.426a42.329,42.329,0,0,1,1.2,10.616,41.892,41.892,0,0,1-1.2,10.613,41.892,41.892,0,0,1-1.2-10.613A42.328,42.328,0,0,1,53.8,60.426Z" transform="translate(37.288 49.671)" fill="#100e0f"/>
    <path id="Path_2438" data-name="Path 2438" d="M40.7,57.824a42.289,42.289,0,0,1,1.2,10.613A41.757,41.757,0,0,1,40.7,79.05a42.029,42.029,0,0,1-1.2-10.613A42.429,42.429,0,0,1,40.7,57.824Z" transform="translate(10.986 44.448)" fill="#100e0f"/>
    <path id="Path_2439" data-name="Path 2439" d="M39.509,54.6a76.564,76.564,0,0,1,1.2,14.33,75.8,75.8,0,0,1-1.2,14.327,75.308,75.308,0,0,1-1.2-14.327A76.311,76.311,0,0,1,39.509,54.6Z" transform="translate(8.595 37.982)" fill="#100e0f"/>
    <path id="Path_2440" data-name="Path 2440" d="M59.744,43.633a43.532,43.532,0,0,1,1.2,10.769,42.944,42.944,0,0,1-1.2,10.766,43.224,43.224,0,0,1-1.2-10.766A43.675,43.675,0,0,1,59.744,43.633Z" transform="translate(49.214 15.962)" fill="#100e0f"/>
    <path id="Path_2441" data-name="Path 2441" d="M61.95,44.147a32.332,32.332,0,0,1,1.2,9.245,31.893,31.893,0,0,1-1.2,9.242,32.1,32.1,0,0,1-1.2-9.242A32.439,32.439,0,0,1,61.95,44.147Z" transform="translate(53.642 16.993)" fill="#100e0f"/>
    <path id="Path_2442" data-name="Path 2442" d="M57.286,60.471a42.3,42.3,0,0,1,1.2,10.613,41.756,41.756,0,0,1-1.2,10.613,41.889,41.889,0,0,1-1.2-10.613A42.3,42.3,0,0,1,57.286,60.471Z" transform="translate(44.286 49.761)" fill="#100e0f"/>
  </g>
</svg>
