<svg xmlns="http://www.w3.org/2000/svg" width="286.352" height="276.185" viewBox="0 0 286.352 276.185">
  <g id="Group_2692" data-name="Group 2692" transform="translate(-22.911 -18.042)">
    <path id="Path_2423" data-name="Path 2423" d="M309.254,144.075c-1.251-22.73-7.224-43.792-21.823-61.815l-.1-.109c.7-4.4,1.124-7.049,1.629-10.241l-.113-.184a92.87,92.87,0,0,0-8.7-12.342c-.345.2-.685.387-1.029.557h0c-3.074-1.265-3.824-3.518-3.9-6.053-20.369-21.044-45.511-28.23-51.2-29.632-2.989-.576-6.129-1.1-9.49-1.549l-1.917-.675c-9.9-5.855-19.4-4.221-28.844-1.7a4.18,4.18,0,0,1-1.185.142C127.705,19.289,88.323,30.9,88.323,30.9l-.179,1.483q-2.543,1.2-5.066,2.6c-5.444,4.858-10.723,9.566-16.171,14.424q-7.04,9.6-14.075,19.207a4.2,4.2,0,0,1-.567.628c-4.254,3.848-7.715,8.187-8.6,14.122h0c-12.125,18.579-17.427,39.382-19.953,61.1a5.091,5.091,0,0,0,.392,6c.382.033.765.1,1.147.142q-.425,15.517-.845,31.04c.7,4.155,1.8,10.666,2.507,14.821l1.629,4.306a4.456,4.456,0,0,1-.77,4.476A174.276,174.276,0,0,0,38.2,233.119c.3.142.581.321.9.439a4.222,4.222,0,0,1,2.89,3.839,22.765,22.765,0,0,0,.345,3.876c1.945,3.579,4.089,7.2,6.459,10.751a35.324,35.324,0,0,0,11.856,5.8,4.293,4.293,0,0,1,2.295,1.591c1.912,2.734,3.418,5.892,6.539,7.384a12.249,12.249,0,0,0,.179,4.788,16.087,16.087,0,0,0,6.87,7.493c1.029.562,2.077,1.1,3.145,1.6a13.515,13.515,0,0,1,5.364,2.913,4.349,4.349,0,0,0,2.262,1.128c19.609,4.075,49.609,9,81.834,9.476,55.828.836,78.6-13.886,78.6-13.886l7.082-4.722c.619-.6,3.324-2.842,4.306-3.612a30.22,30.22,0,0,0,4.169-4.443c31.233-37.069,45.648-73.222,45.964-123.02C309.263,144.368,309.263,144.217,309.254,144.075Z" transform="translate(0 0)" fill="#100e0f"/>
    <path id="Path_2424" data-name="Path 2424" d="M74.157,40.441s20.057,8.319,18.749,45c0,0-10.416,34.991-36.663,30.412l-.831-27.5L62.494,62.1Z" transform="translate(120.954 83.36)" fill="#a09fa0"/>
    <path id="Path_2425" data-name="Path 2425" d="M82.571,43.441a60.29,60.29,0,0,1,4.075,41.186A65.9,65.9,0,0,1,83,94.679c-1.856,3.055-3.366,6.313-5.774,8.962-4.188,5.77-10.024,10-15.9,13.541,4.792-5.028,9.471-9.915,12.89-15.666A58.547,58.547,0,0,0,82.08,83.428a76.67,76.67,0,0,0,2.479-19.717A108.285,108.285,0,0,0,82.571,43.441Z" transform="translate(142.956 94.524)" fill="#fff"/>
    <path id="Path_2426" data-name="Path 2426" d="M128.772,19.882A137.282,137.282,0,0,0,102.581,35.7,151.965,151.965,0,0,0,80.168,56.285a150,150,0,0,0-30.4,52.022,180.091,180.091,0,0,0-7.314,29.429,226.347,226.347,0,0,0-2.29,30.36c-.246,20.359,2.262,40.761,6.124,60.927q-2-7.436-3.867-14.93l-3.008-15.151a252.683,252.683,0,0,1-2.88-30.818l-.161-7.767c.066-2.587.25-5.175.368-7.762.127-5.184.94-10.321,1.459-15.487a183.247,183.247,0,0,1,7.111-30.331C52.325,87.192,63.043,68.783,77.515,53.83,91.934,38.943,109.333,26.724,128.772,19.882Z" transform="translate(50.092 6.848)" fill="#fff"/>
    <path id="Path_2427" data-name="Path 2427" d="M61.427,36.725a101.53,101.53,0,0,0-8.688,15.2A81.808,81.808,0,0,0,47.1,68.109a75.756,75.756,0,0,0-2.238,16.936,126.673,126.673,0,0,0,.911,17.508,52.686,52.686,0,0,1-4.589-17.389,54.06,54.06,0,0,1,1.331-18.169,57.115,57.115,0,0,1,6.988-16.809A48.628,48.628,0,0,1,61.427,36.725Z" transform="translate(66.982 69.53)" fill="#fff"/>
    <path id="Path_2428" data-name="Path 2428" d="M68.426,36.467a119.9,119.9,0,0,0-9.368,15.265A93.187,93.187,0,0,0,52.481,68a78.494,78.494,0,0,0-3.362,17.149,120.038,120.038,0,0,0-.165,17.89c-2.016-5.7-3.574-11.8-3.518-18.013a59.049,59.049,0,0,1,.472-9.3,72.413,72.413,0,0,1,2.059-9.1C51.6,54.758,58.628,43.818,68.426,36.467Z" transform="translate(83.558 68.57)" fill="#fff"/>
    <path id="Path_2429" data-name="Path 2429" d="M122.616,34.618c-23.31,3.843-42.829,20.359-52.371,41.125-5.095,10.312-7.71,21.667-9.528,33.008-.449,5.718-1.615,11.535-1.242,17.13a52.948,52.948,0,0,0,2.979,16.469,48.36,48.36,0,0,0,8.277,14.405,46.914,46.914,0,0,0,13.027,10.3c9.859,4.934,22.257,6.048,31.332-.5,4.835-3.376,9.991-6.284,14.278-9.934,4.382-3.574,7.455-8.423,9.925-13.626,4.981-10.449,8.159-21.818,11.653-32.98-2.469,11.459-5.161,22.885-9.542,33.934-2.29,5.444-5.458,10.85-10.057,14.906-4.509,4.112-9.523,7.158-14.155,10.661a29.078,29.078,0,0,1-8.267,4.344,20.2,20.2,0,0,1-4.585,1.029,21.462,21.462,0,0,1-4.66.312A42.243,42.243,0,0,1,81.832,170.9a51.278,51.278,0,0,1-14.5-11.185,52.479,52.479,0,0,1-9.316-15.775,57.323,57.323,0,0,1-3.041-17.961c-.3-6.152.954-11.917,1.5-17.852,2.073-11.648,4.707-23.471,10.539-34A77.971,77.971,0,0,1,89.858,47a87.306,87.306,0,0,1,7.526-4.755,81.628,81.628,0,0,1,8.093-3.65A57.055,57.055,0,0,1,122.616,34.618Z" transform="translate(119.157 61.689)" fill="#fff"/>
    <path id="Path_2430" data-name="Path 2430" d="M88.266,26.024l52.216-5.553S48.94,72.432,68.743,201.335c7.956,40.435,29.524,68.543,29.524,68.543s-53.5-11.535-68.316-72.594C29.95,197.284,3.557,75.269,88.266,26.024Z" transform="translate(11.719 9.04)" fill="#fff"/>
  </g>
</svg>
