<svg xmlns="http://www.w3.org/2000/svg" width="131.508" height="411.333" viewBox="0 0 131.508 411.333">
  <g id="Group_2691" data-name="Group 2691" transform="translate(-64.246 -14.55)">
    <path id="Path_2423" data-name="Path 2423" d="M189.44,331.224a1.484,1.484,0,0,1-.221-.395A3.218,3.218,0,0,0,189.44,331.224Z" fill="#100e0f"/>
    <path id="Path_2424" data-name="Path 2424" d="M189.2,330.793a.68.68,0,0,1-.013-.3C189.251,330.592,189.181,330.7,189.2,330.793Z" fill="#100e0f"/>
    <path id="Path_2425" data-name="Path 2425" d="M65.066,223.654q0,8.262.027,16.524c.757.635,1.438.355,1.73-.72a20.15,20.15,0,0,0,1.006-4.788c.119-3.768-.05-7.533.064-11.3.146-4.818.445-9.654-.2-14.47-1.694-1.276-1.171,1.048-2,1.221a27.686,27.686,0,0,0-.044-4.674c-.207-1.611.507-3.392-.4-4.9C65.162,208.254,65.066,215.957,65.066,223.654Z" fill="#151315"/>
    <path id="Path_2426" data-name="Path 2426" d="M66.585,189.715c-.1,3.5-.178,6.993-.071,10.5.029.439.04.874.055,1.312.042.916.063,1.829.062,2.746a9.241,9.241,0,0,1-.127,1.42,2.739,2.739,0,0,0-.009.689c.121.542.223,1.086.382,1.616a1.766,1.766,0,0,0,.38.533c.008,3.5.04,7.006.015,10.508-.014,2-.285,4.044-.205,5.988.085,2.052.188,4.183.071,6.176-.149,2.552.745,5.286-.943,7.757-.566.828-.457,1.093-1.1.594q.016,6.267.018,12.533a2.4,2.4,0,0,0,.561.528c.983.979.783,2.246.812,3.445.111,4.62-.08,9.245.134,13.861.042.894-.677,2.646,1.488,2.329.7-1.214.526-2.561.562-3.871.205-7.392-.1-14.782-.045-22.176.145-18.322.052-36.647.041-54.971a6.69,6.69,0,0,0-.562-3.607C66.233,187.32,66.61,188.85,66.585,189.715Z" fill="#211f20"/>
    <path id="Path_2427" data-name="Path 2427" d="M64.246,144.474c.483,9.093.936,18.186,1.063,27.292.124,8.82.058,17.648-.036,26.477.021-.183.034-.367.038-.553.233-12.887-.16-25.77.762-38.666a202.2,202.2,0,0,0,.264-21.331c-.037-1.072.165-2.1-1.276-1.9A40.1,40.1,0,0,1,64.246,144.474Z" fill="#232223"/>
    <path id="Path_2428" data-name="Path 2428" d="M64.945,277.417c-.059,3.632-.159,7.264-.263,10.894a.761.761,0,0,0,.52.088,1.485,1.485,0,0,0,.874-1.473c.038-3.111.607-6.206.369-9.317-.068-.877.51-1.934-.489-2.662-.29-.215-.241.281-.232-.068.011-.429.515-.046.632-.332a2.947,2.947,0,0,0,.4-1.5c.667-4.2-1.157-8.3-.555-12.5a5.36,5.36,0,0,0-.11-.711c-.191-2.112-.213-4.228-.214-6.347.008-.341.049-.679.078-1.018a.754.754,0,0,0-.236-.6l-.61-.577C65.114,260.009,65.084,268.713,64.945,277.417Z" fill="#211f20"/>
    <path id="Path_2429" data-name="Path 2429" d="M122.735,423.441c2.965.821,5.938,1.6,8.917,2.353.462.02.924.055,1.386.089a7.559,7.559,0,0,1,1.915-.282c1.456-.013,2.9-.061,4.344-.125.153-.4.529-.563,1.02-.766,1.341-.552,2.973.052,4.131-1.1a1.836,1.836,0,0,0-1.417-.581c-5.007.3-9.874-.815-14.8-1.4a4.977,4.977,0,0,1-4.761.512,2.927,2.927,0,0,0-2.713.324.392.392,0,0,0-.059.485c.194.075.387.152.581.226A8.544,8.544,0,0,1,122.735,423.441Z" fill="#262425"/>
    <path id="Path_2430" data-name="Path 2430" d="M78.791,52.747c-1.142,3.6-1.972,7.3-2.846,11.03A129.253,129.253,0,0,1,80.526,50.34a1.958,1.958,0,0,0,.09-1.828C80.014,49.932,79.433,51.385,78.791,52.747Z" fill="#fdfdfd"/>
    <path id="Path_2431" data-name="Path 2431" d="M80.4,389.994c.542,1.172,1.059,2.355,1.586,3.534a43.626,43.626,0,0,1,3.278,5.332,1.346,1.346,0,0,0,.448-.612,1.473,1.473,0,0,0,.083-.767c-1.07-3.162-3.143-5.851-4.245-9.012a1.612,1.612,0,0,0-1.556-.974C80.158,388.319,80.3,389.151,80.4,389.994Z" fill="#575657"/>
    <path id="Path_2432" data-name="Path 2432" d="M69.636,345.647c.6,3.339,1.216,6.68,1.857,10.016.266-1.135-.164-2.28-.195-3.42a108.3,108.3,0,0,0-2.335-10.633C69.181,342.955,69.392,344.3,69.636,345.647Z" fill="#fdfdfd"/>
    <path id="Path_2433" data-name="Path 2433" d="M66.794,324.423s-.113-.088-.162-.119c.4,3.517.833,7.033,1.316,10.547,1.866-.406-.079-1.668-.136-2.5a5.3,5.3,0,0,1-.193-1.971,6.374,6.374,0,0,0-.01-.677c.065-1.623-.09-3.251.078-4.879a1.463,1.463,0,0,0-.284-.575.657.657,0,0,0-.55-.066C66.843,324.187,66.794,324.423,66.794,324.423Z" fill="#4f4d4e"/>
    <path id="Path_2434" data-name="Path 2434" d="M64.294,303.59c0,.088-.01.179-.012.267.073.584.157,1.167.228,1.751a2.692,2.692,0,0,0,.549-2.415,52.571,52.571,0,0,1-.222-6.779c-.1-2.452.217-4.928-.176-7.364C64.521,293.9,64.373,298.742,64.294,303.59Z" fill="#fdfdfd"/>
    <path id="Path_2435" data-name="Path 2435" d="M73.672,364.644c-.036.177-.112.339-.162.511.279,1.209.541,2.423.842,3.627.011,0,.02,0,.031,0a1.516,1.516,0,0,0,.7-.335c2-2.005-1.382-3.293-.708-5.216a1.059,1.059,0,0,0-.517-1.325A10.224,10.224,0,0,1,73.672,364.644Z" fill="#3a393a"/>
    <path id="Path_2436" data-name="Path 2436" d="M69.974,88.356a8.32,8.32,0,0,1,.088,3c-.052.338-.113.671-.168,1.008a1.082,1.082,0,0,0,.128-.063c.059-.111.118-.222.174-.333.018-.124.038-.247.054-.371-.008-.125-.011-.249-.02-.374.2-2.468,1.291-4.792,1.183-7.31a8.82,8.82,0,0,1-.229-1.031c-.376,1.583-.746,3.167-1.082,4.756C70.051,87.874,70.02,88.116,69.974,88.356Z" fill="#fdfdfd"/>
    <path id="Path_2437" data-name="Path 2437" d="M64.962,128.776c.022,1.8.084,3.764.1,5.767a2.763,2.763,0,0,0,.242-1.27,58.1,58.1,0,0,1,.472-6.5,5.386,5.386,0,0,0-.361-2.9Q65.194,126.324,64.962,128.776Z" fill="#fdfdfd"/>
    <path id="Path_2438" data-name="Path 2438" d="M66.354,112.754a1.31,1.31,0,0,0,.357-.485c-.012-2.08.842-4.145.586-6.228C66.9,108.248,66.579,110.48,66.354,112.754Z" fill="#fdfdfd"/>
    <path id="Path_2439" data-name="Path 2439" d="M106.586,417.273c.039.008.08.012.119.021a7.739,7.739,0,0,1,1.218.325,7.945,7.945,0,0,1,1.973.994c.065.024.127.035.192.061.542.219,1.088.428,1.633.641l.065-.171c-1.722-1.285-3.515-2.336-5.667-2.2C106.281,417.048,106.432,417.162,106.586,417.273Z" fill="#fdfdfd"/>
    <path id="Path_2440" data-name="Path 2440" d="M65.168,311.211a5.449,5.449,0,0,0-.593-5.066Q64.88,308.679,65.168,311.211Z" fill="#fdfdfd"/>
    <path id="Path_2441" data-name="Path 2441" d="M66.2,114.379c-.124,1.685-.28,3.361-.418,5.041a7.106,7.106,0,0,0,.434-5.214C66.21,114.264,66.2,114.321,66.2,114.379Z" fill="#fdfdfd"/>
    <path id="Path_2442" data-name="Path 2442" d="M179.829,52.647a59.311,59.311,0,0,1-4.228-9.575c1.368.37,1.372,1.791,1.839,2.713C178.533,47.937,179.832,50.087,179.829,52.647Z" fill="#211f20"/>
    <path id="Path_2443" data-name="Path 2443" d="M124.463,15.771c-.522.022-1.044.062-1.566.077-1.266.346-2.524.706-3.775,1.092A15.242,15.242,0,0,0,124.463,15.771Z" fill="#222122"/>
    <path id="Path_2444" data-name="Path 2444" d="M181.966,59.027a26.977,26.977,0,0,1-2.155-6.416C181.6,54.388,182,56.634,181.966,59.027Z" fill="#211f20"/>
    <path id="Path_2445" data-name="Path 2445" d="M190.942,121.322l-.97-.019c-.147-.794.43-1.371.621-2.064l.264.005A3.73,3.73,0,0,1,190.942,121.322Z" fill="#afaeaf"/>
    <path id="Path_2446" data-name="Path 2446" d="M121.314,18.238a4.493,4.493,0,0,1-2.7.569C119.337,17.787,120.376,18.253,121.314,18.238Z" fill="#222122"/>
    <path id="Path_2447" data-name="Path 2447" d="M124.532,17.727a5.054,5.054,0,0,1-2.783.447C122.565,17.33,123.569,17.656,124.532,17.727Z" fill="#222122"/>
    <path id="Path_2448" data-name="Path 2448" d="M189.465,103.347c.645.531.607,1.048-.03,1.554q-.187.279-.37.183c-.121-.064-.181-.127-.181-.19l.012.017c-.316-.68.284-1.1.47-1.632Z" fill="#252324"/>
    <path id="Path_2449" data-name="Path 2449" d="M188.382,341.248c-.819-.763-.33-.961.446-1.035Q188.6,340.731,188.382,341.248Z" fill="#5f5d5e"/>
    <path id="Path_2450" data-name="Path 2450" d="M189.439,330.117l.216-.232c-.012.048-.01.114-.041.139a.752.752,0,0,1-.19.079Z" fill="#3e3c3d"/>
    <path id="Path_2451" data-name="Path 2451" d="M190.857,119.244a.283.283,0,0,1-.264-.005l.137-.366Z" fill="#797778"/>
    <path id="Path_2452" data-name="Path 2452" d="M109.291,20.945c-4.041,2.2-8.267,4.615-12.782,5.7-1.012,1.121-2.082,2.2-3.144,3.249-4.252,4.206-7.376,9.126-10.557,14.183a68.889,68.889,0,0,0-3.731,8.046c-.162.434-.333.865-.483,1.3-.039.112-.079.222-.117.334-1.144,3.825-1.979,7.741-2.927,11.7-1.4,5.86-3.008,11.7-4.4,17.573.413,2.445-.436,4.707-.989,7.011a8.662,8.662,0,0,1-.1,1.311c-.027.18-.061.357-.09.537a.119.119,0,0,1-.026.161q-.345,2.14-.754,4.243c.065.288.305.657-.133.708-1.125,5.753-2.423,11.383-2.861,17.376-.044.591-.1,1.178-.147,1.768A15.189,15.189,0,0,1,65.964,121c.081.481.549.888.269,1.434a2.863,2.863,0,0,0-.2.551c.005.1.009.195.014.293a.611.611,0,0,0,.418.356.235.235,0,0,1,.187-.012c-.017.019-.019.037-.044.055a.282.282,0,0,1-.192.033,1.379,1.379,0,0,0-.453-.007c-1.041.812-.213,1.866-.353,2.8.183.218.446,0,.642.123-.1.151-.353.029-.421.233a10.374,10.374,0,0,0-.378,1.947,1,1,0,0,0,.219.42.973.973,0,0,0,.656.255,1.27,1.27,0,0,0-.8.253,1.72,1.72,0,0,0-.316.968,2.51,2.51,0,0,0,.287,1.525c.122.19.445.311.206.606a3.324,3.324,0,0,0-.61.963,1.268,1.268,0,0,0-.034.184c0,.168,0,.339,0,.507a.407.407,0,0,1,0,.6c0,.289,0,.576,0,.866a.785.785,0,0,0,.134.145c.425.069.993.1.777.725a8.758,8.758,0,0,0-.16,4.217c.127.9.872,2.031-.435,2.859-.27.171-.243,1.014-.154,1.512a33.544,33.544,0,0,1,.167,5.511c.027,1.861.192,3.791.153,5.657-.05,2.43.671,4.907-.259,7.305-.061.157-.1.318-.147.478.076,2.469.138,4.938.172,7.408.174,12.386-.025,24.787-.152,37.183,0,.032,0,.064,0,.1q-.012,1.128-.021,2.256a1.018,1.018,0,0,0,.568.218c.468.023.754-.286.806-.83a2.954,2.954,0,0,1,.749-2.163l.008-.261v-.26c-.579-.4-.241-1.092-.5-1.593,0-.178,0-.355,0-.532.322-.278.193-.764.487-1.054q.009-1.587.017-3.173c-.263-.359-.464-.718.015-1.067.028-4.189.05-8.378.1-12.567,0-.216.27-.428.415-.642.1-6.6.48-13.21.222-19.8-.283-7.223-.446-14.445-.111-21.649.4-8.526.218-17.073,1.007-25.581a84.134,84.134,0,0,0,1.994-13.086,5.064,5.064,0,0,0,.157-.83c.228-1.587-.128-3.211.3-4.786.146-.481.33-.947.5-1.419a20.544,20.544,0,0,0,.7-2.418,6.124,6.124,0,0,0,.077-.7c.042-.463.13-.918.208-1.374a24.067,24.067,0,0,0,.07-3.143,3.759,3.759,0,0,1,.086-2.073,16.627,16.627,0,0,1,.373-2.066c1.747-5.618,2.829-11.4,4.256-17.1,1.15-4.589,2.632-9.1,3.727-13.7a24.478,24.478,0,0,1,3.451-8.739,9.348,9.348,0,0,0,1.09-2.1,34.814,34.814,0,0,1,4.926-8.367c1.881-2.541,3.886-5.005,5.572-7.67a19.456,19.456,0,0,1,9.073-7.32c3.434-1.507,6.981-2.759,10.478-4.123.265-.851.365-1.2.114-1.4A47.353,47.353,0,0,0,109.291,20.945Z" fill="#100e0f"/>
    <path id="Path_2453" data-name="Path 2453" d="M66.705,123.67c.013.025.01.028,0,0Z" fill="#100e0f"/>
    <path id="Path_2454" data-name="Path 2454" d="M66.686,123.575c0-.013,0-.01,0-.026C66.649,123.255,66.8,123.4,66.686,123.575Z" fill="#100e0f"/>
    <path id="Path_2455" data-name="Path 2455" d="M66.526,235.839c.036.053.1.109.1.16-.011.19-.108.241-.233.125a.213.213,0,0,1-.025-.192C66.389,235.887,66.471,235.869,66.526,235.839Z" fill="#211f20"/>
    <path id="Path_2456" data-name="Path 2456" d="M67.265,208.005c-1.356-.157-.786-.92-.5-1.593C67.384,206.8,67.278,207.417,67.265,208.005Z" fill="#151315"/>
    <path id="Path_2457" data-name="Path 2457" d="M67.269,201.653a2.775,2.775,0,0,1-.611-.443c-.143-.176-.317-.514-.242-.644.247-.426.571-.008.868.02Z" fill="#151315"/>
    <path id="Path_2458" data-name="Path 2458" d="M66.765,205.88a1.126,1.126,0,0,1,.488-1.055A1.011,1.011,0,0,1,66.765,205.88Z" fill="#151315"/>
    <path id="Path_2459" data-name="Path 2459" d="M66.2,114.379c-.351,4.8-.778,9.576-1.232,14.353.028,2.282.119,4.8.1,7.359l.133,0q.046-.518.1-1.035a.667.667,0,0,0-.015-.574l-.03-.242.026-.242c.751-.98-.277-2.206.44-3.19-.016-.355-.032-.709-.049-1.064s-.282-.72.018-1.072c1.085-.47.073-1.48.542-2.108l.026.025c-.406-.994-.925-2.008.484-2.673a.314.314,0,0,0,.009-.5,4.23,4.23,0,0,1-.473-.114c-.213-.125-.222-.274-.056-.446H66.2c.424-.51.112-1.041.042-1.564.889-2.532.256-5.053.017-7.576C66.243,113.937,66.214,114.156,66.2,114.379Z" fill="#444243"/>
    <path id="Path_2460" data-name="Path 2460" d="M64.332,301.857a19.694,19.694,0,0,1,.053,2.726c.679,5.5,1.268,11,1.879,16.5l.035,0a4.162,4.162,0,0,0,.26-1.5c-.1-2.314-.734-4.609-.31-6.944a3.162,3.162,0,0,1-.522-.506l0,0c-.454-.529.128-1.044.021-1.569l-.009-.556a12.483,12.483,0,0,0-.469-4.742l-.054-1.026a.36.36,0,0,0,.045-.591l.408-.514a.32.32,0,0,0,.03-.5h0a6.529,6.529,0,0,1-.509-.543l0-.008a.291.291,0,0,1,0-.5l0-.007c.4-.656.134-1.462.472-2.132v-.24l0-.239c-.391-.669.19-1.547-.464-2.16l-.013-.256.009-.256c.242-.176.263-.362.028-.561l-.033-1.576a.652.652,0,0,1,0-1.038v0a.726.726,0,0,0-.022-1.052h0A.714.714,0,0,1,65.181,291h0a.4.4,0,0,0,0-.533h0c-.789-.7.448-1.409,0-2.113h0a1.153,1.153,0,0,1-.479-.772C64.567,292.34,64.425,297.1,64.332,301.857Z" fill="#3c3b3c"/>
    <path id="Path_2461" data-name="Path 2461" d="M65.725,259.82c.209.059.6.111.6.177.015.44-.375.277-.616.343C65.707,260.167,65.712,259.993,65.725,259.82Z" fill="#3e3c3d"/>
    <path id="Path_2462" data-name="Path 2462" d="M65.7,274.605l-.537.119C65.27,274.378,65.382,274.038,65.7,274.605Z" fill="#5f5d5e"/>
    <path id="Path_2463" data-name="Path 2463" d="M69.88,92.444c-.308,1.875-.656,3.728-1.021,5.568a3.953,3.953,0,0,1,.556-1.05l-.015.016A7.855,7.855,0,0,0,69.88,92.444Z" fill="#313031"/>
    <path id="Path_2464" data-name="Path 2464" d="M70.977,83.791c.455-.251.247-.791.482-1.137.036-.158.077-.315.123-.47.338-.523.1-1.157.331-1.7a16.03,16.03,0,0,0,.863-4.048Q71.837,80.108,70.977,83.791Z" fill="#686667"/>
    <path id="Path_2465" data-name="Path 2465" d="M85.054,398.479c.591,1.1,1.174,2.215,1.768,3.344a4.787,4.787,0,0,1,.415.771c.1.178.205.343.305.516.26.182.52.365.78.546.363.167.392.517.488.829a6.682,6.682,0,0,1,1.082.777.744.744,0,0,0,.159-.071l-.072-1.081a2.6,2.6,0,0,1-.47-.586c-.562-1.541-2.186-2.252-2.884-3.73-.283-.6-.142-1.671-1.25-1.72Z" fill="#5b595a"/>
    <path id="Path_2466" data-name="Path 2466" d="M70.865,352.378c.26,1.4.536,2.8.81,4.206a4.632,4.632,0,0,1,.446.643,13.652,13.652,0,0,1,1.311,2.489c.063.183.1.365.144.548.039-.017.062-.017.1-.035a54.7,54.7,0,0,0-1.646-5.635c-.274-.863-.115-1.872-1.116-2.379C70.892,352.27,70.885,352.324,70.865,352.378Z" fill="#3d3b3c"/>
    <path id="Path_2467" data-name="Path 2467" d="M67.309,329.962c.017.044.026.089.044.134.22-.536,1.128-.7.917-1.426-.42-1.44-.006-3.06-.965-4.375-.071,1-.265,1.994-.331,2.99C67.08,328.177,67.2,329.069,67.309,329.962Z" fill="#3e3c3d"/>
    <path id="Path_2468" data-name="Path 2468" d="M67.319,323.8l-.564-.024a3.913,3.913,0,0,0-.015-.508l.569-.026-.006,0a.454.454,0,0,1,.007.562Z" fill="#3e3c3d"/>
    <path id="Path_2469" data-name="Path 2469" d="M74.828,370.738c.276,1.049.593,2.082.922,3.11a1.153,1.153,0,0,1,.506-.873l.057-.057c-.14-.654.743-1.372.074-1.907a2.365,2.365,0,0,1-1.058-2.1c.008-.3-.574-.237-1-.207C74.5,369.377,74.65,370.061,74.828,370.738Z" fill="#333132"/>
    <path id="Path_2470" data-name="Path 2470" d="M79.459,381.931c.614.418.563,1.03.482,1.652-.124-.12-.229-.311-.373-.348C78.233,382.9,79.146,382.392,79.459,381.931Z" fill="#2b2a2a"/>
    <path id="Path_2471" data-name="Path 2471" d="M70.764,84.728q-.384,1.859-.77,3.718a8.392,8.392,0,0,1,.079,2.782,13.4,13.4,0,0,0,1.386-8.574.835.835,0,0,0-.34.512C71,83.686,70.883,84.207,70.764,84.728Z" fill="#313031"/>
    <path id="Path_2472" data-name="Path 2472" d="M154,319.019c-1.534-3.453-1.625-7.167-1.9-10.836-.146-1.928-.068-3.873-.106-5.81a12.856,12.856,0,0,0-.123-2.108c-.952-5.07-2.813-7.775-8.713-8.75a90.362,90.362,0,0,0-28.126-.065,13.3,13.3,0,0,0-2.058.435c-2.479.783-3.342,1.8-3.455,4.361-.221,5-.353,10-.179,15.009.1,2.776-.679,5.129-3.217,6.684a25.542,25.542,0,0,0-2.913,2.25,6.429,6.429,0,0,1-4.134,1.465,3.245,3.245,0,0,1-3.484-2.271c-.683-2.022-1.995-3.716-2.784-5.675a1.937,1.937,0,0,0-2.238-1.282c-3.336.226-6.71.088-10.018.5a4.874,4.874,0,0,1-5.373-4.534c-.3-4.384-.668-8.764-.934-13.15-.443-7.287-.866-14.576-1.229-21.868-.738-14.865-.515-29.742-.29-44.612.154-10.2-.308-20.384-.157-30.579.111-7.482-.131-14.971.079-22.449.22-7.825.762-15.641,1.222-23.457.377-6.4.85-12.793,1.256-19.191a6.411,6.411,0,0,1,.707-3.055,4.259,4.259,0,0,1,4.07-2.39c3.426.205,6.862.254,10.281.529a2.388,2.388,0,0,0,2.815-1.7c.663-1.723,1.8-3.209,2.464-4.952.836-2.2,1.951-2.774,4.314-2.545a5.346,5.346,0,0,1,2.729.9,56.232,56.232,0,0,1,4.99,3.873,6.253,6.253,0,0,1,1.848,4.962c-.174,4.827-.035,9.65.118,14.473.123,3.907,1.123,5.187,4.95,5.9a57.33,57.33,0,0,0,6.293.711c2.9.211,5.8.5,8.7.421,4.916-.135,9.9-.171,14.684-1.3,4.877-1.147,7.254-3.383,7.848-9.561.336-3.5-.082-7.046.448-10.545.29-1.912.524-3.843.983-5.717.683-2.792,2.363-4.092,5.245-4.33.351-.029.7-.046,1.055-.054,3.791-.088,4.152.2,4.888,3.906.017.086.022.175.041.261.9,4.186,1.109,4.344,5.425,4.918a37.423,37.423,0,0,0,8.949.093,13.274,13.274,0,0,1,4.443.436,4.264,4.264,0,0,1,3.389,3.6,48.619,48.619,0,0,1,.674,9.952c.072,6.5.428,13,.275,19.494-.331,13.986-.1,27.994-1.136,41.952-.538,7.228.237,14.411.071,21.619-.3,13.189.762,26.356.817,39.541.043,10.109.672,20.217-.091,30.328a59.5,59.5,0,0,0,.034,7.9,27.866,27.866,0,0,1-.744,6.258,3.847,3.847,0,0,1-2.828,3.163,14.971,14.971,0,0,1-5.219.541,52.617,52.617,0,0,0-11.06.393,2.166,2.166,0,0,0-2.028,1.69,34.163,34.163,0,0,0-1.082,3.791c-.47,2.822-.985,3.231-3.8,3.253-1.384.011-2.82.221-4.115-.535-.329-.628-1.072-.633-1.552-1.034A15.692,15.692,0,0,0,154,319.019Z" fill="#0f0d0e"/>
    <path id="Path_2473" data-name="Path 2473" d="M155.1,319.994a1.611,1.611,0,0,1,1.466,1.264,1.552,1.552,0,0,1-1.5-.681C154.851,320.372,154.849,320.177,155.1,319.994Z" fill="#595858"/>
    <path id="Path_2474" data-name="Path 2474" d="M155.1,319.994l-.029.583A1.363,1.363,0,0,1,154,319.019C154.69,318.976,154.957,319.412,155.1,319.994Z" fill="#616060"/>
    <path id="Path_2475" data-name="Path 2475" d="M78.913,84.281c-.554-.751-.125-1.569,0-2.273A91.411,91.411,0,0,1,82.5,67.326,72.939,72.939,0,0,1,97.816,41.681c2.632-2.89,6.156-4.648,8.9-7.344a11.772,11.772,0,0,1,6.584-3.665,1.448,1.448,0,0,0,1.255-.783c1.025-2.236,3.02-2.4,5.08-2.444.207.043.3.2.388.383.22-.407-.324-.442-.357-.731-.11-.342-.251-.838.085-.963,5.329-2,10.756-3.034,16.484-1.961a43.448,43.448,0,0,1,13.009,4.6v-.008c4.435,2.718,7.722,6.661,11.152,10.447.087.219-.1.476-.053.614.131.345.231-.284.426-.072a2.386,2.386,0,0,1,1.463,2.348c.269.159-.677.21-.037.378.14.037.323-.023.485.083a67.5,67.5,0,0,1,11.381,17.215c3.189,6.664,4.506,13.905,7.023,20.764,1.447,2.049,1.439,4.425,1.244,6.73-.146,1.725-1.708,2.712-3.871,2.8a21.018,21.018,0,0,0-5.425.585,3.242,3.242,0,0,1-1.932.756,5.955,5.955,0,0,0-5.556,4.829c-1.161,4.5-4.1,6.538-9.333,6.195a12.686,12.686,0,0,1-2.36-.193c-1.886-.534-3-2.139-4.485-3.231-2.28-2.274-4.746-4.19-8.179-4.25a14.461,14.461,0,0,0-3.553-.3,6.656,6.656,0,0,1-1.247-.2,13.352,13.352,0,0,0-3.476-.3,88.8,88.8,0,0,0-20.326.044c-2.306-.318-3.335.74-3.619,3.009-.214,1.7-.315,3.588-1.942,4.732-4.138,2.909-10.807-.2-11.342-5.262-.163-1.538.292-3.208-.927-4.525-1.619-1.213-3.578-.25-5.293-.825a28.072,28.072,0,0,0-6.141-1.267c-3.4-.371-3.795-.747-4.235-4.025A5.467,5.467,0,0,0,78.913,84.281Z" fill="#0f0d0e"/>
    <path id="Path_2476" data-name="Path 2476" d="M120.163,27.713a23.2,23.2,0,0,0-2.532.58c-.819.282-2.224-.168-1.991,1.646.059.462-1.37.633-1.5,1.559-1.118-1.287-1.382,1.1-2.5.544-1.195-.59-2.006.195-2.711,1.233-1.219,1.795-3.557,2.388-4.769,4.23-4.114,1.789-6.387,5.554-9.291,8.644-5.459,5.81-8.74,12.875-11.633,20.163-.165.416-.264.837-.733,1.014a18.78,18.78,0,0,1,1.861-5.689A79,79,0,0,1,97.925,40.382c1.815-1.158,2.535-3.434,4.515-4.421.816-.125.834-.978,1.3-1.426l-.007.007c2.636-1.555,4.8-3.763,7.38-5.389a28.33,28.33,0,0,1,14.306-5.3c2.147-.2,4.238-.942,6.466-.813a39.006,39.006,0,0,1,16.2,4.712,2.375,2.375,0,0,1,1.164,1.013c-.347-.025-.768.07-1.031-.092-3.876-2.371-8.25-3.257-12.612-3.954a24.735,24.735,0,0,0-10.62.407c-1.036.288-1.994.046-2.567,1.437-.489,1.187-1.559.349-2.415-.489C120.078,26.877,120.12,27.3,120.163,27.713Z" fill="#181718"/>
    <path id="Path_2477" data-name="Path 2477" d="M161.931,42.519a3.292,3.292,0,0,0-1.591-2.648l.005,0c-1.677-1.1-2.421-3.113-4.117-4.2-1.457-.937-1.722-2.882-3.306-3.8a8.651,8.651,0,0,1-3.678-3.109c5.324,2.586,9.418,6.638,12.9,11.275,3.209,4.271,6.09,8.788,9.147,13.174a17.541,17.541,0,0,1,1.837,3.483,44.839,44.839,0,0,0,1.944,4.317,37.6,37.6,0,0,1,3.081,8.088c1.021,3.8,2.356,7.522,2.929,11.44-.914-.48-.866-1.473-1.148-2.261-1.3-3.62-2.212-7.362-3.383-11.017a60.635,60.635,0,0,0-4.03-9.105c-1.1-2.14-2.1-4.351-3.346-6.432-1.481-2.474-3.393-4.647-5.04-7.006a10.682,10.682,0,0,0-2.211-2.2Z" fill="#1e1c1d"/>
    <path id="Path_2478" data-name="Path 2478" d="M78.913,84.281c.7.488.469,1.238.554,1.907.309,2.431,1.308,3.357,3.716,3.372a19.449,19.449,0,0,1,6.33.986c-.892.915-1.865.312-2.815.152-1.549-.171-3.1-.307-4.645-.52-2.279-.315-2.765-.792-3.163-3.08A4.507,4.507,0,0,1,78.913,84.281Z" fill="#141213"/>
    <path id="Path_2479" data-name="Path 2479" d="M111.109,29.153c-.115.616-.324,1.315-.9,1.51-1.962.67-3.217,2.234-4.687,3.52-.577.505-1.065.9-1.8.359A19.076,19.076,0,0,1,111.109,29.153Z" fill="#383637"/>
    <path id="Path_2480" data-name="Path 2480" d="M102.686,36.14a17.034,17.034,0,0,0-3.067,3.212c-.474.549-.875,1.1-1.694,1.03a13.953,13.953,0,0,1,4.688-4.906A.4.4,0,0,1,102.686,36.14Z" fill="#535253"/>
    <path id="Path_2481" data-name="Path 2481" d="M102.686,36.14q-.036-.332-.073-.664a1.085,1.085,0,0,1,1.123-.941C103.834,35.363,103.814,36.113,102.686,36.14Z" fill="#383637"/>
    <path id="Path_2482" data-name="Path 2482" d="M73.121,92.31c0,.456-.051.832-.624.408.1-.75-.044-1.558.52-2.2Q73.07,91.415,73.121,92.31Z" fill="#b9b9b9"/>
    <path id="Path_2483" data-name="Path 2483" d="M92.568,393.087A60.546,60.546,0,0,1,81.93,371.655q-1.4-5.191-2.548-10.432a24.559,24.559,0,0,1-.63-6.741c.129-2.208.836-3.938,3.345-4.268,1.425-.946,3.149-.7,4.692-1.186.741-.067,1.485-.061,2.228-.069,1.315-.018,2.631.044,3.942-.065,2.1-.228,2.789-1.512,2.695-3.471-.326-6.737,5.088-8.4,10.822-6.731,1.8.524,2.008,2.253,2.309,3.832.321,1.682.247,3.653,2.61,4.022,2.234.613,4.522.288,6.776.33,4.876.089,9.756.055,14.634-.05a22.647,22.647,0,0,0,2.311-.415,13.293,13.293,0,0,0,2.959-.366,12.335,12.335,0,0,1,2.811-.22,6.28,6.28,0,0,0,1.8-.192,5.876,5.876,0,0,1,.991-.182,6.552,6.552,0,0,0,1.522-.228c.182-.077.367-.145.549-.22a3.853,3.853,0,0,0,.745-.491c.228-.228.449-.459.673-.692.922-.937,1.833-1.879,2.711-2.859,2.237-3.221,5.614-2.507,8.771-2.555a5.036,5.036,0,0,1,2.78.544c.759.68,1.369,1.5,2.062,2.242a3.291,3.291,0,0,1,.383.608c.261.627.421,1.294.731,1.9.1.189.191.386.276.584.134.286.262.576.409.859.115.182.219.368.328.553a6.181,6.181,0,0,0,.857,1.033c1.443,2.049,3.559,2.689,5.911,2.915.93.09,1.959-.236,2.772.515a10.081,10.081,0,0,0,3.361.339c2.746.154,4.221,1.727,3.9,4.43-.172,1.433-.1,2.957-.873,4.284-1.735,2.612-2.07,5.73-2.9,8.628-3.121,10.889-7.756,20.95-15.352,29.458-1.107,1.239-1.317,3.062-2.858,3.928-.237.007-.464-.276-.58-.24-.389.118.3.3.02.493-1.31,2.631-4.192,3.947-5.484,6.589a2.244,2.244,0,0,1-1.422,1.1c-4.44,3.185-9.139,5.823-14.593,6.84a32.136,32.136,0,0,1-14.319-.12c-1.52-.4-2.414-1.731-3.868-2.185-1.335-.416-2.561-1.218-4-1.275-1.175-.047-2.034-.193-2.091-1.716a1.646,1.646,0,0,0-1.489-1.253c-2.882-.217-4.6-2.326-6.6-3.994a12.545,12.545,0,0,0-3.055-2.043,2.013,2.013,0,0,1-.576-.431,24.671,24.671,0,0,0-4.226-3.668C95.669,397.8,94.664,394.958,92.568,393.087Z" fill="#0f0d0e"/>
    <path id="Path_2484" data-name="Path 2484" d="M102.7,403.1c.4-.141.795-.439,1.225-.1.959.762,1.925,1.518,2.863,2.306,1.779,1.493,3.3,3.41,5.9,3.538,1.2.059,1.541,1.358,2.569,1.807.618.269-.953.189-.687.9a21.257,21.257,0,0,1,8.591,3.228c2.195,1.422,5.244,1.637,8.12,1.49a60.122,60.122,0,0,0,12.341-2.138,17.367,17.367,0,0,0,5.984-3.238,8.583,8.583,0,0,1,3.335-1.993.374.374,0,0,1,.086.659c-6.539,4.8-13.747,7.948-21.956,7.9a35.63,35.63,0,0,1-11.988-2.143,57.942,57.942,0,0,1-12.024-6.8c-.075-.428-.208-.8-.778-.659-.873-.938-2.015-1.542-2.924-2.424C102.695,404.788,101.822,404.18,102.7,403.1Z" fill="#181617"/>
    <path id="Path_2485" data-name="Path 2485" d="M154.021,407.883c.536-1.237.761-2.688,2.476-3.012.645-.122.735-.929,1.088-1.413a10.191,10.191,0,0,1,2.231-2.494l0,0a1.229,1.229,0,0,0,1.074-.633c.48-.873-.331-2.48,1.471-2.6-.019-1.3,1.2-1.428,1.891-2.076a10.811,10.811,0,0,0,1.945-2.47,69.875,69.875,0,0,1,4.753-7.19,5.235,5.235,0,0,0,.839-1.64c1.046-3.559,2.949-6.729,4.444-10.083a48.916,48.916,0,0,0,1.752-6.253,70.356,70.356,0,0,1,2.9-8.4c.084-.194.43-.275.654-.408-1.2,4.3-2.463,8.594-3.578,12.922a31.732,31.732,0,0,1-2.62,6.875,28.612,28.612,0,0,0-2.088,4.551,22.654,22.654,0,0,1-3.236,5.72c-2.618,3.846-5.316,7.636-7.957,11.466-1.917,2.781-4.5,4.894-7,7.09A.727.727,0,0,1,154.021,407.883Z" fill="#1b191a"/>
    <path id="Path_2486" data-name="Path 2486" d="M106.943,407.835a58.621,58.621,0,0,0,11.429,6.769,1.257,1.257,0,0,1,.707.709,6.105,6.105,0,0,1-3.243-.932,55.71,55.71,0,0,1-20.352-17c-1.023-1.395-2.5-2.491-2.916-4.3,1.724.478,2.377,2.065,3.366,3.289.753.933,1.317,2.039,2.543,2.48A22.586,22.586,0,0,0,102.7,403.1l0,0a2.3,2.3,0,0,0,1.342,2.3c1.1.69,1.89,1.7,2.908,2.447Z" fill="#363435"/>
    <path id="Path_2487" data-name="Path 2487" d="M154.021,407.883l1.036-.044a3.226,3.226,0,0,1-2.034,1.714c-.029-.22-.057-.439-.086-.659A1.778,1.778,0,0,0,154.021,407.883Z" fill="#4b4a4b"/>
    <path id="Path_2488" data-name="Path 2488" d="M70.962,101.208l.464-1.2a1.238,1.238,0,0,1,.826.507,3.543,3.543,0,0,1,.536,1.232,1.889,1.889,0,0,1-.02.695,5.078,5.078,0,0,1-.6,1.327c-.425.344-.744,1.265-1.42.269C70.823,103.092,70.523,102.122,70.962,101.208Z" fill="#afafaf"/>
    <path id="Path_2489" data-name="Path 2489" d="M70.962,101.208q.048,1.58.1,3.16a1.487,1.487,0,0,1,.415,1.14,1.058,1.058,0,0,1-.664.963,2.724,2.724,0,0,0-.35,0C70.681,104.722,69.947,102.882,70.962,101.208Z" fill="#141213"/>
    <path id="Path_2490" data-name="Path 2490" d="M65.271,134c.064-1.075-.488-2.235.44-3.19.025.577-.1,1.2.526,1.582A1.731,1.731,0,0,1,65.271,134Z" fill="#232223"/>
    <path id="Path_2491" data-name="Path 2491" d="M66.2,122.855c-.125-.525-.79-1.065.042-1.564.551.075,1.051.223.943.936C67.1,122.782,66.636,122.808,66.2,122.855Z" fill="#1d1b1c"/>
    <path id="Path_2492" data-name="Path 2492" d="M65.662,129.747c-.5-.366-.41-.722.018-1.072C65.352,129.027,67.534,129.421,65.662,129.747Z" fill="#232223"/>
    <path id="Path_2493" data-name="Path 2493" d="M72.392,96.96a2.915,2.915,0,0,0-.362-.017,1.685,1.685,0,0,1,.419-1.141l.189.165C72.861,96.373,72.964,96.75,72.392,96.96Z" fill="#3e3c3d"/>
    <path id="Path_2494" data-name="Path 2494" d="M66.237,132.393l.123-.227.1.1Z" fill="#232223"/>
    <path id="Path_2495" data-name="Path 2495" d="M66.248,126.592l.216-.246c-.013.049-.012.118-.043.142a.788.788,0,0,1-.2.079Z" fill="#444243"/>
    <path id="Path_2496" data-name="Path 2496" d="M66.732,123.919a2.287,2.287,0,0,0,.01-.5C67.13,123.59,67.119,123.758,66.732,123.919Z" fill="#1d1b1c"/>
    <path id="Path_2497" data-name="Path 2497" d="M65.742,310.006c-.952-1.5-.232-3.17-.47-4.742.574.381.288,1.281.967,1.6l0-.005C66.491,307.972,67.19,309.157,65.742,310.006Z" fill="#211f20"/>
    <path id="Path_2498" data-name="Path 2498" d="M65.195,301.578c.248-.691-1.264-1.772.473-2.132C66.614,300.4,65.7,300.945,65.195,301.578Z" fill="#211f20"/>
    <path id="Path_2499" data-name="Path 2499" d="M65.663,298.967c-1.416-.449-.085-1.488-.464-2.16C66.342,297.315,66.224,298.093,65.663,298.967Z" fill="#211f20"/>
    <path id="Path_2500" data-name="Path 2500" d="M65.182,290.467c-.877-.7-.277-1.409,0-2.113.94-.025.8.485.523,1.06l0,0A1.111,1.111,0,0,0,65.182,290.467Z" fill="#211f20"/>
    <path id="Path_2501" data-name="Path 2501" d="M65.73,312.131c-.623-.531-.655-1.055.021-1.569C66.993,311.1,66.172,311.614,65.73,312.131Z" fill="#211f20"/>
    <path id="Path_2502" data-name="Path 2502" d="M65.19,294.158c-.507-.344-.518-.69,0-1.039Q65.187,293.64,65.19,294.158Z" fill="#211f20"/>
    <path id="Path_2503" data-name="Path 2503" d="M65.166,292.066c-.519-.363-.5-.718.015-1.066Z" fill="#211f20"/>
    <path id="Path_2504" data-name="Path 2504" d="M65.219,304.238c.014-.2.029-.393.044-.59.239.053.549.029.594.331C65.865,304.033,65.442,304.15,65.219,304.238Z" fill="#211f20"/>
    <path id="Path_2505" data-name="Path 2505" d="M65.195,296.3l.027-.561.651.3Z" fill="#211f20"/>
    <path id="Path_2506" data-name="Path 2506" d="M65.188,293.117q-.012-.525-.022-1.052C65.731,292.4,65.725,292.755,65.188,293.117Z" fill="#211f20"/>
    <path id="Path_2507" data-name="Path 2507" d="M65.705,289.414c.074.039.215.094.211.116-.039.177-.12.134-.206-.119Z" fill="#211f20"/>
    <path id="Path_2508" data-name="Path 2508" d="M65.182,291c0-.178,0-.355,0-.532C65.538,290.646,65.543,290.823,65.182,291Z" fill="#211f20"/>
    <path id="Path_2509" data-name="Path 2509" d="M65.7,302.635l-.509-.543Z" fill="#211f20"/>
    <path id="Path_2510" data-name="Path 2510" d="M65.672,303.133c.012-.166.022-.333.03-.5C66.072,302.823,66.066,302.989,65.672,303.133Z" fill="#211f20"/>
    <path id="Path_2511" data-name="Path 2511" d="M66.239,306.862c.04-.074.094-.216.116-.211.175.039.133.12-.121.206Z" fill="#211f20"/>
    <path id="Path_2512" data-name="Path 2512" d="M76.313,372.918l.222.28-.278-.223Z" fill="#333132"/>
    <path id="Path_2513" data-name="Path 2513" d="M67.31,323.8c0-.187,0-.374-.007-.562C67.692,323.418,67.667,323.606,67.31,323.8Z" fill="#3c3b3c"/>
    <path id="Path_2514" data-name="Path 2514" d="M89.979,404.11l-.47-.586A.576.576,0,0,1,89.979,404.11Z" fill="#6f6d6e"/>
    <path id="Path_2515" data-name="Path 2515" d="M65.193,302.084c-.312-.164-.3-.331,0-.5C65.191,301.752,65.192,301.918,65.193,302.084Z" fill="#211f20"/>
    <path id="Path_2516" data-name="Path 2516" d="M108.013,60.005a.236.236,0,0,1,.34-.121c.4-.171.91-.091,1.219-.495a68.654,68.654,0,0,1,8.205-3.529c6.464-2.578,12.57-5.884,18.774-8.994,1.806-.906,3.621-1.8,5.477-2.6.63-.27,1.56-1.027,2.052.066.43.958-.6,1.3-1.2,1.762a1.371,1.371,0,0,1-.235.121c-10.1,5.135-20.192,10.292-30.835,14.253a2.337,2.337,0,0,1-.521.069q-.322.169-.644.342l-.5.15C109.113,61.362,108.122,61.6,108.013,60.005Z" fill="#f1f1f1"/>
    <path id="Path_2517" data-name="Path 2517" d="M121.217,64.712a110.653,110.653,0,0,1,16.189-7.436,73.254,73.254,0,0,0,8.482-3.547,5.325,5.325,0,0,1,1.459-.577c.639-.117,1.476-.479,1.788.464.26.782-.463,1.058-1,1.31-1.743.818-3.466,1.705-5.269,2.368a208.118,208.118,0,0,0-20.011,8.621,2.857,2.857,0,0,1-1.48.464c-1.049.315-1.672.172-1.215-1.131h0C120.452,64.951,120.941,65.04,121.217,64.712Z" fill="#e9e9e9"/>
    <path id="Path_2518" data-name="Path 2518" d="M123.344,74.836A163.679,163.679,0,0,1,144.1,66.724c1.169-.367,2.334-.758,3.522-1.053.494-.122,1.1-.055,1.208.633a.916.916,0,0,1-.6,1.044c-.407.161-.8.359-1.223.481a196.924,196.924,0,0,0-22.1,8.291,6.578,6.578,0,0,1-1.01.255C122.609,76.262,122.969,75.552,123.344,74.836Z" fill="#dfdfdf"/>
    <path id="Path_2519" data-name="Path 2519" d="M127.032,44.571q-8.926,3.864-17.855,7.722a2.91,2.91,0,0,1-.992.3c-.418.016-.9,0-1.068-.535a.841.841,0,0,1,.292-.945,8.006,8.006,0,0,1,1.547-.986c5.3-2.325,10.516-4.849,15.942-6.886a7.052,7.052,0,0,1,1.021-.224c.665-.24,1.393-.536,1.79.33C127.979,43.934,127.521,44.3,127.032,44.571Z" fill="#f2f2f2"/>
    <path id="Path_2520" data-name="Path 2520" d="M123.344,74.836c.012.576-.086,1.191.556,1.539-3.981,1.863-7.929,3.8-12.059,5.327-.489.387-1.3-.124-1.669.59l.039-.042c-.364.185-.881.077-1.089.563l.018-.01c-.848.1-1.257-.238-1.125-1.12a.238.238,0,0,1,.329-.127c.4-.176.941-.054,1.195-.55l-.038.023c.372-.174.854-.111,1.121-.515C114.809,78.5,118.987,76.47,123.344,74.836Z" fill="#cbcbcb"/>
    <path id="Path_2521" data-name="Path 2521" d="M108.013,60.005c.4.988,1.286.971,2.135,1.029a84.367,84.367,0,0,1-10.659,4.184c-1.842.527-2.03.439-2.032-.95a.388.388,0,0,1,.376-.163c.262-.033.441-.237.677-.325C101.723,62.636,104.683,60.854,108.013,60.005Z" fill="#dedede"/>
    <path id="Path_2522" data-name="Path 2522" d="M120.161,65.248c.022.788.524,1.062,1.215,1.131-3.255,2.134-6.934,3.195-10.635,4.2-1.07-.31-2.582,1.887-3.271-.578h0c.44-.456,1.165-.028,1.594-.515a.257.257,0,0,1,.361-.083,12.441,12.441,0,0,0,2.811-.983Z" fill="#d7d6d7"/>
    <path id="Path_2523" data-name="Path 2523" d="M107.47,70c.254.479.525.959,1.193.729a4.575,4.575,0,0,1,2.078-.151,40.6,40.6,0,0,1-7.482,2.609c-1.067-.449-1.068-.57-.013-1.545A15.1,15.1,0,0,1,107.47,70Z" fill="#c4c4c4"/>
    <path id="Path_2524" data-name="Path 2524" d="M103.246,71.644c-.19.516-.853,1.037.013,1.545-1.012,1.013-2.434,1.1-3.663,1.617-.334.249-.774.181-1.126.375l-.494.2c-.527-.079-1.166.51-1.573-.183-.278-.473.2-.707.487-.976l0,0c.307-.281.768-.2,1.083-.458A17.609,17.609,0,0,1,103.246,71.644Z" fill="#aeadae"/>
    <path id="Path_2525" data-name="Path 2525" d="M108.015,81.683a2.218,2.218,0,0,0,1.125,1.12,41.62,41.62,0,0,1-5.316,2.569,2.055,2.055,0,0,1-.607.337l-.494.12c-1.018-.51-.693-1.034-.017-1.563l-.005,0c.291-.283.823-.173,1.015-.619A16.9,16.9,0,0,1,108.015,81.683Z" fill="#bbbaba"/>
    <path id="Path_2526" data-name="Path 2526" d="M97.457,64.268c.149,1.447,1.316.716,2.032.95A5.636,5.636,0,0,1,95.83,66.31c-.336-.017-.717-.077-.8-.525a.711.711,0,0,1,.489-.816C96.151,64.7,96.685,64.147,97.457,64.268Z" fill="#abaaab"/>
    <path id="Path_2527" data-name="Path 2527" d="M153.465,101.791c-2.441-.026-2.84-.366-3.765-3.205C151.176,99.395,152.149,100.795,153.465,101.791Z" fill="#2d2b2c"/>
    <path id="Path_2528" data-name="Path 2528" d="M97.448,75.915c-.623.658-1.413.441-2.167.418l.017-.009c-.35.522-.806.688-1.292.237-.383-.356-.229-.811.029-1.186a1.448,1.448,0,0,1,1.386-.565C96,75.346,96.852,75.4,97.448,75.915Z" fill="#232122"/>
    <path id="Path_2529" data-name="Path 2529" d="M102.706,84.266a1.491,1.491,0,0,0,.017,1.563c-.229.124-.452.261-.688.372-.733.345-1.478.3-1.732-.517-.289-.934.757-.7,1.186-1A4.654,4.654,0,0,1,102.706,84.266Z" fill="#8f8e8e"/>
    <path id="Path_2530" data-name="Path 2530" d="M127.032,44.571c.519-1.341.519-1.341-1.113-1.555a2.146,2.146,0,0,1,.644-.382c.745-.125,1.689-.382,1.922.631C128.723,44.3,127.824,44.467,127.032,44.571Z" fill="#d6d5d6"/>
    <path id="Path_2531" data-name="Path 2531" d="M97.448,75.915c-.855-.04-1.809.1-2.027-1.105l1.469-.589c-.282.727-.333,1.243.723.842.07-.027.239.2.363.317Z" fill="#848383"/>
    <path id="Path_2532" data-name="Path 2532" d="M112.232,68.422a2.841,2.841,0,0,1-2.811.983A4.712,4.712,0,0,1,112.232,68.422Z" fill="#c4c4c4"/>
    <path id="Path_2533" data-name="Path 2533" d="M109.06,69.488c-.388.617-.985.584-1.594.515A2.251,2.251,0,0,1,109.06,69.488Z" fill="#c4c4c4"/>
    <path id="Path_2534" data-name="Path 2534" d="M110.172,82.292c.324-.855,1.042-.593,1.669-.59A1.822,1.822,0,0,1,110.172,82.292Z" fill="#bbbaba"/>
    <path id="Path_2535" data-name="Path 2535" d="M121.217,64.712a.948.948,0,0,1-1.057.536A1.146,1.146,0,0,1,121.217,64.712Z" fill="#d7d6d7"/>
    <path id="Path_2536" data-name="Path 2536" d="M109.539,81.006c-.217.575-.668.645-1.195.551A1.455,1.455,0,0,1,109.539,81.006Z" fill="#bbbaba"/>
    <path id="Path_2537" data-name="Path 2537" d="M109.572,59.389a1,1,0,0,1-1.219.495A1.187,1.187,0,0,1,109.572,59.389Z" fill="#dedede"/>
    <path id="Path_2538" data-name="Path 2538" d="M109.122,82.813c.167-.565.6-.628,1.089-.563C110.007,82.746,109.564,82.778,109.122,82.813Z" fill="#bbbaba"/>
    <path id="Path_2539" data-name="Path 2539" d="M110.622,80.514a.882.882,0,0,1-1.121.515A1.184,1.184,0,0,1,110.622,80.514Z" fill="#bbbaba"/>
    <path id="Path_2540" data-name="Path 2540" d="M103.716,83.65a.876.876,0,0,1-1.015.619A1.058,1.058,0,0,1,103.716,83.65Z" fill="#8f8e8e"/>
    <path id="Path_2541" data-name="Path 2541" d="M97.969,73.767a1.02,1.02,0,0,1-1.083.458C97.089,73.7,97.529,73.733,97.969,73.767Z" fill="#848383"/>
    <path id="Path_2542" data-name="Path 2542" d="M98.47,75.181a.946.946,0,0,1,1.126-.375A1.236,1.236,0,0,1,98.47,75.181Z" fill="#848383"/>
    <path id="Path_2543" data-name="Path 2543" d="M161.926,42.514c-.039.074-.094.215-.116.21-.175-.039-.132-.119.121-.2Z" fill="#1e1c1d"/>
    <path id="Path_2544" data-name="Path 2544" d="M160.34,39.871c-.039.073-.094.215-.116.21-.176-.039-.133-.12.121-.206Z" fill="#1e1c1d"/>
    <path id="Path_2545" data-name="Path 2545" d="M110.649,60.884a.6.6,0,0,1,.644-.342A.578.578,0,0,1,110.649,60.884Z" fill="#dedede"/>
    <path id="Path_2546" data-name="Path 2546" d="M98.51,63.78a.5.5,0,0,1-.677.325A.561.561,0,0,1,98.51,63.78Z" fill="#abaaab"/>
    <path id="Path_2547" data-name="Path 2547" d="M103.217,85.709a.5.5,0,0,1,.607-.337A.61.61,0,0,1,103.217,85.709Z" fill="#8f8e8e"/>
    <path id="Path_2548" data-name="Path 2548" d="M120.163,27.713l.22.121-.1.1Z" fill="#181718"/>
    <path id="Path_2549" data-name="Path 2549" d="M121.189,383.963c9.286-3.762,18.842-6.744,28.371-9.805,2.76-.887,5.5-1.848,8.266-2.706.772-.239,1.911-.8,2.265.368.348,1.145-.878,1.331-1.668,1.6-11.569,3.924-23.3,7.377-34.76,11.616a3.5,3.5,0,0,1-.781.1c-.467.422-1.227-.038-1.642.543l.027-.011c-.451.417-1.222-.057-1.6.574l.037-.017c-.486.36-1.22-.061-1.637.518l.03-.011c-.337.229-.8.158-1.109.449l-.5.127c-.908-.254-2.257,1.236-2.741-.694l-.009.007c.364-.189.822-.142,1.139-.45l.009,0c.408-.489,1.177-.01,1.554-.581l-.026.01c.46-.412,1.2.027,1.612-.538l-.025.01c.328-.245.789-.169,1.1-.456a.268.268,0,0,1,.392-.1C120,384.14,120.774,384.6,121.189,383.963Z" fill="#f0f0f0"/>
    <path id="Path_2550" data-name="Path 2550" d="M122.806,396.191l-.5.115c-.742-.475-.979-.92-.056-1.507.507-.322,1.175-.276,1.582-.771l-.031.011c1.069-.353,2.316-.224,3.166-1.169,6.071-2.779,12.51-4.5,18.831-6.56,5-1.627,10.01-3.224,14.89-5.2a14.7,14.7,0,0,1,2.252-.7.847.847,0,0,1,1.06.544.907.907,0,0,1-.354,1.155,15.116,15.116,0,0,1-1.9.868c-7.636,3.115-15.555,5.393-23.4,7.9-2.832.9-5.652,1.845-8.477,2.769a10.46,10.46,0,0,0-2.832.982l.007,0c-1.051.373-2.221.4-3.156,1.108l.029-.009C123.578,395.951,123.111,395.877,122.806,396.191Z" fill="#f3f3f3"/>
    <path id="Path_2551" data-name="Path 2551" d="M120.165,373.967a.257.257,0,0,1-.365.119c-.409.147-.929-.021-1.229.435l-.007,0c-.533.64-1.583-.219-2.021.7l.047-.031a2.076,2.076,0,0,0-1.183.4l.026.018c-.422.319-.924.2-1.394.251a.807.807,0,0,1-.869-.459.5.5,0,0,1,.282-.55c.324-.055.684-.049.8-.465l-.027.022c.4-.115.873-.061,1.152-.474l-.034.015c.462-.4,1.234.077,1.607-.571l-.042.021c.368-.183.83-.133,1.14-.46h0c.415-.475,1.195.012,1.561-.592l-.034.016c.473-.387,1.215.045,1.627-.531l-.029.014c.333-.238.793-.164,1.105-.453a93.682,93.682,0,0,1,10.785-4.188c6.125-2.18,12.306-4.2,18.36-6.578a5.821,5.821,0,0,1,1.265-.332.921.921,0,0,1,1.076.551.872.872,0,0,1-.417,1.12,5.348,5.348,0,0,1-1.173.589q-13.878,4.941-27.763,9.864c-.885.34-1.912.3-2.658,1.007a.33.33,0,0,1-.415.093C120.974,373.747,120.5,373.662,120.165,373.967Z" fill="#efefef"/>
    <path id="Path_2552" data-name="Path 2552" d="M123.867,403.62a56.609,56.609,0,0,1,10.511-4.1,3.656,3.656,0,0,1,3.4.428c-4.615,2.128-9.234,3.161-13.427,5.226-.4.347-.853.33-1.1-.085C122.861,404.41,123.331,403.974,123.867,403.62Z" fill="#bab9b9"/>
    <path id="Path_2553" data-name="Path 2553" d="M122.806,364.487a.323.323,0,0,1-.325.112.934.934,0,0,0-.732.415.356.356,0,0,1-.344.1.946.946,0,0,0-.7.446l.007,0c-.724-.2-2.03,1.731-2.172-.594l-.012.014q.3-.2.59-.411a.434.434,0,0,1,.378-.156,1.49,1.49,0,0,0,.682-.43l.012-.006c.278-.328.739-.244,1.061-.473l.034-.025c.761-.2,1.615-.216,2.072-1.029,1.559-.574,3.117-1.154,4.681-1.717a4.031,4.031,0,0,1,1.015-.249c.547-.046.741.372.884.8.148.448-.2.681-.49.792-1.8.682-3.612,1.322-5.421,1.976C123.622,364.212,123.138,364.136,122.806,364.487Z" fill="#c2c1c1"/>
    <path id="Path_2554" data-name="Path 2554" d="M113.75,386.616a1.4,1.4,0,0,0,1.6.549c.4-.063.818-.371,1.141.145a37.995,37.995,0,0,1-7.459,2.539c-.415.495-1.124.064-1.56.493a.3.3,0,0,1-.387.144c-.834-.2-2.215.7-2.243-1.116a.32.32,0,0,1,.411-.093c.631-.516,1.629.253,2.159-.616A34.006,34.006,0,0,1,113.75,386.616Z" fill="#dfdfdf"/>
    <path id="Path_2555" data-name="Path 2555" d="M123.833,394.028c-.177.54-.673.729-1.117.9-.774.306-.666.8-.409,1.374a18.392,18.392,0,0,1-6.295,2.064c-1.14.373-1.572.029-1.175-1.158l-.009.005c.338-.228.794-.159,1.11-.442A76.223,76.223,0,0,1,123.833,394.028Z" fill="#ddd"/>
    <path id="Path_2556" data-name="Path 2556" d="M105.365,377.255a47.578,47.578,0,0,1,6.82-2.257c.056.1.112.205.169.306a5.932,5.932,0,0,0-.2.908,1.891,1.891,0,0,1,.162.533,27.112,27.112,0,0,1-4.766,1.529c-.482.4-1.212-.022-1.658.5a.313.313,0,0,1-.347.1,3.734,3.734,0,0,0-1.245.354.372.372,0,0,1-.423.139c-.93.164-1.3-.245-1.175-1.153l0,0c.456-.429,1.169-.028,1.612-.5l.007,0C104.593,377.4,105.051,377.492,105.365,377.255Z" fill="#cfcecf"/>
    <path id="Path_2557" data-name="Path 2557" d="M114.837,397.212a1.185,1.185,0,0,0,1.175,1.158A14.075,14.075,0,0,1,111.348,400c-.371.09-.925.1-1.085-.454-.154-.533.249-.839.635-1.018A9.111,9.111,0,0,1,114.837,397.212Z" fill="#b6b6b6"/>
    <path id="Path_2558" data-name="Path 2558" d="M102.7,378.212a2.188,2.188,0,0,0,1.175,1.153c-1.069.863-2.465.785-3.675,1.25a.9.9,0,0,1-1.1-.5c-.227-.541.258-.8.632-.954A9.585,9.585,0,0,1,102.7,378.212Z" fill="#adadad"/>
    <path id="Path_2559" data-name="Path 2559" d="M149.806,341.758c.9-2.678,1.481-3.138,3.97-3.188.78-.015,1.56-.049,2.34-.074.9.314,1.931-.067,2.774.533a13.581,13.581,0,0,1-3.851.062,4.391,4.391,0,0,0-4.062,1.7A6.558,6.558,0,0,1,149.806,341.758Z" fill="#383637"/>
    <path id="Path_2560" data-name="Path 2560" d="M102.7,403.1c-.393.123-.887.445-1.17.024-.976-1.455-2.567-2.471-3.055-4.269,1.633.746,2.625,2.31,4.112,3.255C102.765,402.223,102.671,402.761,102.7,403.1Z" fill="#181617"/>
    <path id="Path_2561" data-name="Path 2561" d="M118.536,364.963c.107.528.247.935.964.673a4.249,4.249,0,0,1,1.208-.079,5.455,5.455,0,0,1-2.223,1.139c-.463.143-1,.519-1.352-.084-.305-.528.076-.987.475-1.3A3.18,3.18,0,0,1,118.536,364.963Z" fill="#a3a2a2"/>
    <path id="Path_2562" data-name="Path 2562" d="M104.842,389.37c.311,1.251,1.658.416,2.243,1.116a3.8,3.8,0,0,1-2.152.5c-.963.151-2.19.689-1.754-1.2v0c.358-.186.795-.144,1.131-.39Z" fill="#c1c1c1"/>
    <path id="Path_2563" data-name="Path 2563" d="M103.179,389.788c.055,1.174.966,1.1,1.754,1.2a2.119,2.119,0,0,1-1.7.454c-.487-.053-1.139.014-1.113-.74C102.144,390.092,102.612,389.847,103.179,389.788Z" fill="#999898"/>
    <path id="Path_2564" data-name="Path 2564" d="M123.867,403.62c-.311.666-.835,1.4.489,1.551a.89.89,0,0,1-1.627-.081C122.347,404.23,122.884,403.651,123.867,403.62Z" fill="#888687"/>
    <path id="Path_2565" data-name="Path 2565" d="M161.4,339.643a2.449,2.449,0,0,1,2.177,2.075A4.458,4.458,0,0,1,161.4,339.643Z" fill="#2d2c2c"/>
    <path id="Path_2566" data-name="Path 2566" d="M126.968,392.87c-.729,1.273-1.916,1.3-3.166,1.169A8.224,8.224,0,0,1,126.968,392.87Z" fill="#ddd"/>
    <path id="Path_2567" data-name="Path 2567" d="M123.891,395.737a3.184,3.184,0,0,1,3.156-1.108A5.478,5.478,0,0,1,123.891,395.737Z" fill="#ddd"/>
    <path id="Path_2568" data-name="Path 2568" d="M123.353,362.447c-.287,1.157-1.026,1.4-2.072,1.029A3.9,3.9,0,0,1,123.353,362.447Z" fill="#a3a2a2"/>
    <path id="Path_2569" data-name="Path 2569" d="M121.75,373.43c.564-1.184,1.635-1.031,2.658-1.007A5.588,5.588,0,0,1,121.75,373.43Z" fill="#e2e2e2"/>
    <path id="Path_2570" data-name="Path 2570" d="M127.04,394.632a2.759,2.759,0,0,1,2.832-.982A5.328,5.328,0,0,1,127.04,394.632Z" fill="#ddd"/>
    <path id="Path_2571" data-name="Path 2571" d="M163.561,341.7a4.66,4.66,0,0,1,1.059,2.674A2.605,2.605,0,0,1,163.561,341.7Z" fill="#2d2c2c"/>
    <path id="Path_2572" data-name="Path 2572" d="M116.543,375.222c.4-1.021,1.293-.624,2.021-.7A2.635,2.635,0,0,1,116.543,375.222Z" fill="#e2e2e2"/>
    <path id="Path_2573" data-name="Path 2573" d="M107.412,388.661c-.491,1.006-1.359.689-2.159.616A4.294,4.294,0,0,1,107.412,388.661Z" fill="#c1c1c1"/>
    <path id="Path_2574" data-name="Path 2574" d="M104.307,377.715c-.388.649-1,.566-1.612.5A1.873,1.873,0,0,1,104.307,377.715Z" fill="#adadad"/>
    <path id="Path_2575" data-name="Path 2575" d="M105.89,378.773a1.455,1.455,0,0,1,1.658-.5A2.061,2.061,0,0,1,105.89,378.773Z" fill="#adadad"/>
    <path id="Path_2576" data-name="Path 2576" d="M107.472,390.342c.377-.616.97-.551,1.56-.493A1.877,1.877,0,0,1,107.472,390.342Z" fill="#c1c1c1"/>
    <path id="Path_2577" data-name="Path 2577" d="M141.316,346.436c.485-.576,1.126-.452,1.753-.387A2.047,2.047,0,0,1,141.316,346.436Z" fill="#dadada"/>
    <path id="Path_2578" data-name="Path 2578" d="M143.955,345.955c.479-.622,1.141-.48,1.782-.425A1.8,1.8,0,0,1,143.955,345.955Z" fill="#dadada"/>
    <path id="Path_2579" data-name="Path 2579" d="M118.029,385.061c-.369.684-.984.629-1.612.538A2.176,2.176,0,0,1,118.029,385.061Z" fill="#dfdfdf"/>
    <path id="Path_2580" data-name="Path 2580" d="M118.071,386.745c.38-.7,1.007-.613,1.637-.518A1.7,1.7,0,0,1,118.071,386.745Z" fill="#dfdfdf"/>
    <path id="Path_2581" data-name="Path 2581" d="M119.606,372.351c-.33.7-.952.629-1.561.592A2.106,2.106,0,0,1,119.606,372.351Z" fill="#e2e2e2"/>
    <path id="Path_2582" data-name="Path 2582" d="M118.571,374.521c.055-1.146.7-.634,1.229-.435A1.181,1.181,0,0,1,118.571,374.521Z" fill="#e2e2e2"/>
    <path id="Path_2583" data-name="Path 2583" d="M119.671,386.244c.34-.725.973-.637,1.6-.574A1.734,1.734,0,0,1,119.671,386.244Z" fill="#dfdfdf"/>
    <path id="Path_2584" data-name="Path 2584" d="M121.189,383.963c-.38.747-1.039.643-1.693.553A2.236,2.236,0,0,1,121.189,383.963Z" fill="#dfdfdf"/>
    <path id="Path_2585" data-name="Path 2585" d="M121.2,371.836c-.37.706-1.007.594-1.627.531C119.984,371.79,120.6,371.845,121.2,371.836Z" fill="#e2e2e2"/>
    <path id="Path_2586" data-name="Path 2586" d="M121.24,385.681c.377-.7,1.013-.609,1.642-.543A1.926,1.926,0,0,1,121.24,385.681Z" fill="#dfdfdf"/>
    <path id="Path_2587" data-name="Path 2587" d="M113.873,376.177a2.229,2.229,0,0,1-1.559.568l-.15-.2c.119-1.026.808-.765,1.438-.637C113.692,375.994,113.783,376.085,113.873,376.177Z" fill="#cfcecf"/>
    <path id="Path_2588" data-name="Path 2588" d="M113.813,375.056c-.167.006-.334.015-.5.028a.745.745,0,0,1-1,.093l-.124-.179a1.745,1.745,0,0,1,1.63-.489A.36.36,0,0,1,113.813,375.056Z" fill="#cfcecf"/>
    <path id="Path_2589" data-name="Path 2589" d="M113.831,375.6l1.6.008a1.915,1.915,0,0,1-1.56.565l-.168-.186C113.571,375.8,113.622,375.678,113.831,375.6Z" fill="#cfcecf"/>
    <path id="Path_2590" data-name="Path 2590" d="M116.443,385.589c-.339.673-.949.62-1.554.581A1.756,1.756,0,0,1,116.443,385.589Z" fill="#dfdfdf"/>
    <path id="Path_2591" data-name="Path 2591" d="M116.949,373.381c-.339.745-.98.639-1.607.571A1.883,1.883,0,0,1,116.949,373.381Z" fill="#e2e2e2"/>
    <path id="Path_2592" data-name="Path 2592" d="M119.1,384.615a.967.967,0,0,1-1.1.456A1.039,1.039,0,0,1,119.1,384.615Z" fill="#dfdfdf"/>
    <path id="Path_2593" data-name="Path 2593" d="M122.275,371.4a.994.994,0,0,1-1.105.453A1.063,1.063,0,0,1,122.275,371.4Z" fill="#e2e2e2"/>
    <path id="Path_2594" data-name="Path 2594" d="M122.806,364.487a.993.993,0,0,1,1.216-.435A1.443,1.443,0,0,1,122.806,364.487Z" fill="#a3a2a2"/>
    <path id="Path_2595" data-name="Path 2595" d="M122.806,396.191a.905.905,0,0,1,1.114-.463A1.118,1.118,0,0,1,122.806,396.191Z" fill="#ddd"/>
    <path id="Path_2596" data-name="Path 2596" d="M121.247,363.5a.92.92,0,0,1-1.061.473C120.428,363.565,120.84,363.539,121.247,363.5Z" fill="#a3a2a2"/>
    <path id="Path_2597" data-name="Path 2597" d="M120.165,373.967a1.024,1.024,0,0,1,1.17-.444A1.093,1.093,0,0,1,120.165,373.967Z" fill="#e2e2e2"/>
    <path id="Path_2598" data-name="Path 2598" d="M164.611,344.351a1.045,1.045,0,0,1,.469,1.112A.866.866,0,0,1,164.611,344.351Z" fill="#2d2c2c"/>
    <path id="Path_2599" data-name="Path 2599" d="M165.086,345.476a.935.935,0,0,1,.475,1.038A.891.891,0,0,1,165.086,345.476Z" fill="#2d2c2c"/>
    <path id="Path_2600" data-name="Path 2600" d="M104.311,389.4a1.038,1.038,0,0,1-1.131.39A.954.954,0,0,1,104.311,389.4Z" fill="#999898"/>
    <path id="Path_2601" data-name="Path 2601" d="M104.3,379.226a.977.977,0,0,1,1.245-.354C105.223,379.324,104.766,379.292,104.3,379.226Z" fill="#adadad"/>
    <path id="Path_2602" data-name="Path 2602" d="M105.365,377.255a.972.972,0,0,1-1.051.457A.862.862,0,0,1,105.365,377.255Z" fill="#adadad"/>
    <path id="Path_2603" data-name="Path 2603" d="M115.938,396.775a.9.9,0,0,1-1.11.442A1,1,0,0,1,115.938,396.775Z" fill="#b6b6b6"/>
    <path id="Path_2604" data-name="Path 2604" d="M115.407,375.594a.9.9,0,0,1,1.183-.4A1.08,1.08,0,0,1,115.407,375.594Z" fill="#e2e2e2"/>
    <path id="Path_2605" data-name="Path 2605" d="M116.992,387.183a.946.946,0,0,1,1.109-.449A1.12,1.12,0,0,1,116.992,387.183Z" fill="#dfdfdf"/>
    <path id="Path_2606" data-name="Path 2606" d="M118.047,372.942a.935.935,0,0,1-1.14.46A1.085,1.085,0,0,1,118.047,372.942Z" fill="#e2e2e2"/>
    <path id="Path_2607" data-name="Path 2607" d="M114.88,386.173a.923.923,0,0,1-1.139.451A1.077,1.077,0,0,1,114.88,386.173Z" fill="#dfdfdf"/>
    <path id="Path_2608" data-name="Path 2608" d="M115.376,373.937a.86.86,0,0,1-1.152.474A1.086,1.086,0,0,1,115.376,373.937Z" fill="#e2e2e2"/>
    <path id="Path_2609" data-name="Path 2609" d="M159.816,400.964c-.073-.04-.215-.1-.21-.118.038-.176.12-.134.207.12Z" fill="#1b191a"/>
    <path id="Path_2610" data-name="Path 2610" d="M113.813,375.056c0-.182,0-.365,0-.547a.315.315,0,0,1,.436-.12A.694.694,0,0,1,113.813,375.056Z" fill="#e2e2e2"/>
    <path id="Path_2611" data-name="Path 2611" d="M146.072,345.383l.559-.447C146.541,345.2,146.4,345.407,146.072,345.383Z" fill="#dadada"/>
    <path id="Path_2612" data-name="Path 2612" d="M120.174,363.98a.682.682,0,0,1-.682.43A.682.682,0,0,1,120.174,363.98Z" fill="#a3a2a2"/>
    <path id="Path_2613" data-name="Path 2613" d="M120.7,365.561a.689.689,0,0,1,.7-.446A.71.71,0,0,1,120.7,365.561Z" fill="#a3a2a2"/>
    <path id="Path_2614" data-name="Path 2614" d="M121.749,365.014a.763.763,0,0,1,.732-.415A.64.64,0,0,1,121.749,365.014Z" fill="#a3a2a2"/>
    <path id="Path_2615" data-name="Path 2615" d="M119.114,364.566a.6.6,0,0,1-.59.411A.5.5,0,0,1,119.114,364.566Z" fill="#a3a2a2"/>
    <path id="Path_2616" data-name="Path 2616" d="M106.948,407.842c.039-.074.093-.217.114-.212.178.039.136.119-.119.2Z" fill="#363435"/>
    <path id="Path_2617" data-name="Path 2617" d="M71.071,106.5l.554-.01c-.1.191-.1.5-.415.433C71.138,106.9,71.116,106.644,71.071,106.5Z" fill="#f4f4f4"/>
    <path id="Path_2618" data-name="Path 2618" d="M72.026,100.652l.544-.525a1.109,1.109,0,0,1,.365.605,1.477,1.477,0,0,1-.355,1v0C72.108,101.519,72.056,101.091,72.026,100.652Z" fill="#8f8e8f"/>
    <path id="Path_2619" data-name="Path 2619" d="M95.3,76.324l-.166-.123.15.132Z" fill="#848383"/>
    <path id="Path_2620" data-name="Path 2620" d="M113.831,375.6a.843.843,0,0,1-.125.387,2.608,2.608,0,0,0-1.542.55c-.4.009-.94.254-1.131-.229-.139-.352.337-.529.631-.705.221-.133.43-.287.645-.431l1-.092C113.486,375.257,113.658,375.431,113.831,375.6Z" fill="#e2e2e2"/>
    <path id="Path_2621" data-name="Path 2621" d="M144.357,344.872a1.545,1.545,0,0,1,1.171-.384A1.144,1.144,0,0,1,144.357,344.872Z" fill="#dadada"/>
    <path id="Path_2622" data-name="Path 2622" d="M72.581,104.364c-.358-.158-.544-.321-.015-.5Q72.578,104.112,72.581,104.364Z" fill="#6e6d6e"/>
    <path id="Path_2623" data-name="Path 2623" d="M83,85l-4-3a27.673,27.673,0,0,0-1,8c0,5,1,12,0,15s-2.945,16.087-2.972,29.543S92,158,92,158l29,15,46-29,20.343-7.906S185,82,180,82s-24,4-24,4l-47,1L99,91Z" fill="#100e0f"/>
    <path id="Path_2624" data-name="Path 2624" d="M124.864,421.175c-4.156-1.687-8.495-2.821-12.739-4.238a58.045,58.045,0,0,1-13.7-6.639,22.51,22.51,0,0,1-6.567-6.762c-1.747-2.734-4.074-5.1-5.311-8.154a30.682,30.682,0,0,0-2.5-4.925,13.808,13.808,0,0,1-1.938-4.59c-1.49-7.231-4.273-14.127-5.576-21.4-.994-5.542-3.069-10.813-3.959-16.373L71.539,340c-.056-.194-.113-.388-.167-.583-.167-1.118-.256-2.25-.342-3.416l-.177-1.387-.339-3.828-1.029-7.154h0c-.351-3.485-.962-6.965-1.006-10.453-.132-10.6-.881-21.189-.748-31.8.037-2.962.489-5.93.028-8.895-.905-1.177-.447-2.547-.464-3.819-.066-4.749-.026-9.5-.031-14.249,0-1.152.129-2.4-1.542-2.539,0,.174-.01.349-.013.524a5.972,5.972,0,0,0-.508.559c.262,2.279-.261,4.618.525,6.856.2.269.572.211.81.41a.6.6,0,0,0-.827.11c-.081,1.813-.165,3.626-.242,5.44-.02.489-.24.915.211,1.447,2.048,2.419.466,4.912.02,7.378q0-.068-.21-.1-.195-.029-.327.219c.3.3.9.757.842.874-.818,1.6.436,3.245-.205,4.859-.686,1.729.256,3.619-.381,5.408-.275.774.46,1.708-.235,2.488l.048.236c.064.146.122.293.188.441a1.959,1.959,0,0,1,.007.229l-.2.08a.981.981,0,0,0-.343.7,1.044,1.044,0,0,0,.214.538c.242.014.269.077.053.2a1.245,1.245,0,0,0-.283.469,1.787,1.787,0,0,0-.026.546,4.645,4.645,0,0,0,.116.523,1.658,1.658,0,0,1-.079.776,3.571,3.571,0,0,0-.148.538,5.532,5.532,0,0,0-.05.9,2.052,2.052,0,0,0,.31,1.215.628.628,0,0,0,.623.185c-.144.188-.423.155-.564.345a1.135,1.135,0,0,0-.058.637,3.1,3.1,0,0,1,.33,1.886,4.149,4.149,0,0,0,.022.659,2.745,2.745,0,0,1-.228,1.552c-.032.1-.071.2-.105.3s-.046.2-.069.306c0,.1,0,.2.008.308a1.564,1.564,0,0,0,.26.527,1.474,1.474,0,0,0,.419.346c.123.457-.357-.007-.373.246a.552.552,0,0,0-.18.7c.319.3-.1.429-.152.638a2.666,2.666,0,0,0,.005.9c.235.546.248,1.2.785,1.607.669-.039.249.307.2.5a3.874,3.874,0,0,1-.473,2.366,1.947,1.947,0,0,0-.03.689,2.934,2.934,0,0,1,.119,1.267,1.612,1.612,0,0,0,.043.637,4.452,4.452,0,0,1,.188.612,15.98,15.98,0,0,0-.165,2.049q.309,2.8.617,5.6c.031.159.056.318.089.477l-.013.015a1.562,1.562,0,0,1,.208.475,4.3,4.3,0,0,0,.055.517,1.327,1.327,0,0,0,.247.453,1.892,1.892,0,0,1,.243.451.815.815,0,0,0,.256.445c.344.346-.305.2-.208.423-.007.093-.016.188-.024.281.082.047.164.1.246.146l0,.007a14.528,14.528,0,0,1,.049,5.8h-.006c.031.407.108.813.13,1.22.089.7.172,1.4.265,2.1.917.515.653.848.163,1.147.5,3.7,1.061,7.393,1.73,11.088q.579,3.2,1.166,6.4c.04.055.082.11.116.166.387,1.921,1.008,3.776,1.579,5.648a8.72,8.72,0,0,1,.935,1.853,8.547,8.547,0,0,1,.442,2.994c.135.638-.228,1.367.062,2.044.32.748.917,1.2,1.226,1.819.408.818-.247,1.461-.857,2.016.036.144.069.288.105.432a12.234,12.234,0,0,1,1.507,3.369c.029.236.38.349.29.57-.062.15-.277-.245-.446-.028a.916.916,0,0,0-.209.308q.372,1.193.775,2.372c.626.745,1.43,1.412,1.156,2.552a4.163,4.163,0,0,0,1.475,3.211h0a3.413,3.413,0,0,1,.42.6l.086-.042c.325.5.063,1.176.482,1.652L79.89,384.6a1.957,1.957,0,0,0-.29.575,3,3,0,0,0,0,.663c.173.7.33,1.4.463,2.115a2.357,2.357,0,0,1,1.556,1.931,5.3,5.3,0,0,0,1.083,3.047c1.44,1.435,1.994,3.32,2.67,5.146.568,2.2,2.111,3.739,3.574,5.338.144.311.293.619.452.922a4.522,4.522,0,0,1,.125.621,7.056,7.056,0,0,1,.707.609,57.9,57.9,0,0,0,8.19,7.227c2.143,1.434,4.594,2.28,6.807,3.584.487.286.942.6,1.4.906.026.006.053.008.079.014a7.739,7.739,0,0,1,1.218.325,8.19,8.19,0,0,1,1.826.894c.2.091.4.169.6.263.785.316,1.573.622,2.361.928a12.4,12.4,0,0,1,2.064.811c.449.174.9.351,1.344.527a4.09,4.09,0,0,1,1.759.757c.139.073.293.136.424.215.853-.026,1.547.577,2.38.632,1.277-.006,2.662-.372,3.781.349,1.542.995,2.377.331,3.129-.944C126.68,421.763,125.746,421.533,124.864,421.175Z" fill="#110f10"/>
    <path id="Path_2625" data-name="Path 2625" d="M195.623,229.953c0-.252-.009-.5-.011-.748q-.078-10.811-.533-21.622a25.661,25.661,0,0,1,.675-7.932c-1.519-13.271-.3-26.776-1.2-40.114a280.9,280.9,0,0,1-.028-40.759c.006-.077.028-.146.036-.221-.131-1.149-.267-2.289-.389-3.415-2.247-12.059-3.043-24.579-4.707-36.629-.008-.014-.007-.029-.016-.043a.856.856,0,0,1-.09-.851v-.012c-.364-.6-.126-1.317-.2-1.973-.035-.136-.069-.272-.1-.408a1.252,1.252,0,0,0-.266-.417,2.621,2.621,0,0,1-.154-1.246c-.065-.26-.128-.52-.192-.779a.89.89,0,0,0-.083-.133l-.124-.189.081-.192-.013-.053a1.465,1.465,0,0,1-.2-.824l-.36-1.466-.051-.051.025-.053c-.58-2.372-1.164-4.748-1.792-7.122-2.2-8.332-6.425-15.844-9.873-23.689a34.731,34.731,0,0,0-2.983-3.446,115.315,115.315,0,0,1-10.605-11.627,4.509,4.509,0,0,1-.273-.442,8.056,8.056,0,0,0-2.47-1.482.632.632,0,0,0-.553-.536,2.127,2.127,0,0,0-.307-.362c-.278-.176-.556-.356-.836-.53-.146-.062-.3-.117-.451-.167l.047.038c-.192-.172-.4-.323-.6-.481a46.032,46.032,0,0,0-11.4-5.273c-.161-.045-.309-.1-.462-.154-7.414.141-14.843,1.085-22.259,1.3-2.107.576-4.193,1.189-6.256,1.905-.088.956.6,1.259,1.614,1.287a3.827,3.827,0,0,0,.706-.094,22.779,22.779,0,0,1,2.412-.256,5.478,5.478,0,0,0,.694-.155,8.394,8.394,0,0,1,2.558-.187,37.229,37.229,0,0,0,7.1-.409c9.444-1.913,17.811.18,25.512,6.131,7.073,5.466,12.7,12.121,17.87,19.275,2.25,2.634,3.223,5.875,4.323,9.055a5.045,5.045,0,0,0,.335.685c.858,2,1.743,4,1.608,6.253a20.849,20.849,0,0,0,1.051,4.6c2.514,7.156,3.625,14.6,4.455,22.077.163,1.469.607,2.949.671,4.448l.02.058S191,106,190,113l1,4v8l-.5.668a107.184,107.184,0,0,1,.86,12.944c-.008,3.268-.681,6.47-.595,9.744.2,7.561.163,15.121.434,22.688.418,11.678.6,23.377.343,35.078-.222,10.1.042,20.212.045,30.318,0,7.734.383,15.483.149,23.2-.264,8.718.381,17.413.1,26.122-.235,7.383.449,14.787-.566,22.154a79.093,79.093,0,0,0-.862,10.5,8.141,8.141,0,0,0,.289,1.665,2.042,2.042,0,0,1-.253-1.006l-.9,12.869a1.669,1.669,0,0,0,.066-.4c.016.034.039.064.053.1-.054.149-.089.3-.128.45l-.011.145-.058.111c-.327,1.568.012,3.224-.5,4.77a7.8,7.8,0,0,0-.7,2.142c-.041.245-.082.489-.109.737-.1.481-.248.951-.3,1.441-.473,2.281.994,4.555.034,6.837a26.74,26.74,0,0,1-.539,2.632,138.3,138.3,0,0,1-5.685,28.631c-1.963,6.41-3.725,13.06-7.45,18.528-7.593,11.146-16.619,20.972-30.226,25.049-1.153.583-2.484.484-3.67.959-.724.291-1.457.551-1.326,1.419,3.011-.127,6-.367,8.988-.78,1.026-.359,2.059-.706,3.069-1.1a8.01,8.01,0,0,1,1.394-.944,82.6,82.6,0,0,0,8.8-5.612c3.8-3.716,7.9-7.09,11.511-11,.066-.131.132-.262.2-.391a.809.809,0,0,0,.51-.6c.211-.241.44-.468.669-.694a8.09,8.09,0,0,1,1.939-4.185,6.961,6.961,0,0,1,2.014-1.508,5.918,5.918,0,0,1,.149-.6l-.019-.191.162-.1c.092-.149.21-.281.3-.433,1.546-4.9,4.129-9.293,5.593-14.254a114.307,114.307,0,0,0,3.19-14.394,113.808,113.808,0,0,1,3.419-15.7l-.017-.024.041-.056c.121-.388.243-.775.371-1.161.06-.91-.225-1.869.218-2.725l-.073-.218.123-.194c.584-1.081-.054-2.329.468-3.419l-.1-.139.1-.135c.009-.017.013-.035.022-.052,1.232-14.928,1.943-29.89,2.318-44.909.308-12.289.744-24.658.3-36.947-.2-5.431-1.619-13.929.162-20.257C194.936,238.476,195.3,234.22,195.623,229.953Z" fill="#100e0f"/>
    <path id="Path_2626" data-name="Path 2626" d="M115.353,252.706,74.24,295.243s2.525,57.463,6.054,69.463l42.588-9.882,25.883-2.118,26.353,2.823,6.588,2.824s7.765-45.882,5.412-61.882S115.353,252.706,115.353,252.706Z" fill="#0f0d0e"/>
  </g>
</svg>
