<svg xmlns="http://www.w3.org/2000/svg" width="810.393" height="308.834" viewBox="0 0 810.393 308.834">
  <g id="Group_2712" data-name="Group 2712" transform="translate(-17.484 -22.899)">
    <g id="Group_2708" data-name="Group 2708" transform="translate(17.484 22.899)">
      <g id="Group_2691" data-name="Group 2691">
        <path id="Path_2423" data-name="Path 2423" d="M814.046,63.064a4.6,4.6,0,0,0-2.79.476,5.671,5.671,0,0,0-2.882-.633q-6.067-3-12.133-5.989c-3.7,1.582-8.931-2.559-11.558,3.074Q782.838,62.9,780.99,65.8c-8.281,1.151-15.161,7.929-24.2,6.038l.288-.142c-4.666-4.03-10.111-3.2-15.535-2.5l-17.66-.814-.458.007c.142-.2.288-.387.423-.6-2.666-6.127-8.277-4.592-13.054-4.8-8.046-.355-15.933,1.446-23.89,2.31-3.348.107-7.144,1.976-9.365-2.371a7.871,7.871,0,0,0-2.36-.633,5.322,5.322,0,0,0-.6-2.431C676.1,52.7,671.057,47.817,668.4,42.1c-2.495-4.265-6.714-3.547-10.591-3.536-17.838.043-35.675.178-53.513.277.69.259,1.39.423,2.083.626a21.456,21.456,0,0,1-2.083-.626l-.036.142c-4.6-5.086-10.861-5.32-16.889-5.082-40.043,1.582-79.87-4.926-119.9-3.167-13.218.579-26.2-4.8-39.3-2.14-19.593,3.977-39.123,2.7-58.738,1.176-46.355,1.148-92.618-1.2-138.881-3.586a16.769,16.769,0,0,0-6.308-1.379C202.72,20.8,180.93,24.467,159.3,23.692l-.014,0-13.847,3.568c-2.1-.857-2.776.736-3.6,2.086-4.123,2.513-5.345,5.946-4.027,10.179-2.488,3.988-5.871,5.64-11.664,5.381-18.858-.842-37.772-.476-56.666-.583q-1.455-1.375-2.907-2.754c-4.29-4.517-8.946-8.427-15.439-9.287-9.468.565-18.957,1.059-27,7.08q-1.626,4.169-3.259,8.338c-5.829,5.242-2.157,12.176-3.248,18.261.032,1.006.046,2.008.043,3.014,1.088-.053,2.179-.1,3.266-.156l.046-.068C27,85.415,30.083,87.565,44.832,85.4c.206-.341.348-.661.512-.992,2.6.359,4.933.132,5.939-2.943A.957.957,0,0,0,52,81.346c6.212-.96,14.941,5.192,17.425-6.294a3.726,3.726,0,0,0,.8-2.644l1.176.227,1.105-.473c18.03,4.848,36.436,2.808,54.718,2.964q3,.021,6.006.036a3.369,3.369,0,0,0,2.577.945q.192,2.522.38,5.036,2.639,4.739,5.278,9.482c7.744,11.885,20.222,7.972,31.119,9.322,9.884,4.475,19.775-.114,29.658.021,23.705,3.7,45.349,11.135,59.224,32.658q1.311.133,2.633.16c8.764,10.7,20.916,16.217,33.134,21.63q1.407,2.788,2.811,5.58l0,0c-7.35,4.272-5.274,11.458-5.548,17.923q.624.752,1.255,1.5c-.409.092-.817.142-1.223.245a4.389,4.389,0,0,0-.032-1.749c-9.418,10.541-1.152,20.795.508,31.155-7.925,16.1-10.634,33.856-16.157,50.716a15.117,15.117,0,0,1-2.445.8c-1.379,21.4-20.173,19.181-33.351,24.58-6.557-1.67-12.24,2.594-18.531,2.733,0,0-9.031,1.5-11.689,12.286.1.021.21.043.3.064q-.437,2.937-.871,5.871c-.562,14.038,11.352,12.873,18.819,13,21.747.373,43.253,3.622,65,3.984,16,.263,32.747-1.813,47.844,1.614,23.528,5.338,47.226,3.686,70.679,6.77,7.9,1.041,16.082-1.379,23.229-5.822a9.132,9.132,0,0,0,3.1-4.382l20.557-3.753a189.469,189.469,0,0,1,35.782-11.97l8.128-4.937c8.544-2.328,17.059-4.766,25.635-6.969,16.53-4.247,17.649-6.294,12.535-23.865-4.514-6.216-11.163-1.681-16.523-3.309-10.438-3.167-23.009,5.246-31.9-5.942l-5.569-.554a6.069,6.069,0,0,0-.753-2.488q-1.551-4.334-3.106-8.672c.3-.092.593-.188.9-.281q-2.074-7.607-4.148-15.211c-5.715-6.006-5.072-15.563-11.757-21.026l-3.117-3.437a4.7,4.7,0,0,0,.114-2.815c-6.639-6.284-14.632-2.474-22.046-2.961h0a2.972,2.972,0,0,1-2.061-.455l5-9.383,7.8-14.387c18.847-18.008,44.315-24.061,66.176-36.628,6.55,1.134,11.764-3.6,17.941-4.1,5.829-2.943,11.849-5.232,18.5-5.338q7.618-3.028,15.243-6.053c5.388.857,10.381-.416,15.162-2.822l36.368-3.113c10.63,7.328,22.511,1.247,33.646,3.138l1.315-.412,1.379,0c1.766-3.255,6.429-4.453,6.383-8.992q3.108-6,6.22-12l2.964-2.793,30.4,3.078c18.069,4.116,36.137,10.513,54.21.064-.082.156-.2.274-.274.437,2.815,5.48,4.684,13.573,12.709,4.574.295-.4.515-.924.91-1.166a1.193,1.193,0,0,1,1.127.213c14.07,15.791,29.477,14.142,41.312-4.446,2.335.672,3.309,6.614,6.7,2.488C832.349,95.786,825,67.919,814.046,63.064Z" transform="translate(-17.484 -22.899)" fill="#100e0f"/>
      </g>
      <g id="Group_2692" data-name="Group 2692" transform="translate(294.735 56.522)">
        <path id="Path_2424" data-name="Path 2424" d="M194.913,68.964s6.586-12.073-5.644-17.873S169.043,39.174,145.21,38.858s-30.888.473-40.925,8.469c-4.389,3.764-4.858,14.739-2.353,14.739s20.542-1.724,51.274,1.567S194.913,68.964,194.913,68.964Z" transform="translate(-100.414 -38.802)" fill="#fff"/>
      </g>
      <g id="Group_2693" data-name="Group 2693" transform="translate(139.04 10.584)">
        <path id="Path_2425" data-name="Path 2425" d="M56.606,25.877c20.539-.014,41.07.309,61.606.455L179.8,27.338c41.056.729,82.1,1.937,123.154,2.882C344,31.6,385.042,32.744,426.076,34.332l61.545,2.495c20.51,1.027,41.028,1.869,61.531,3.056-20.539.021-41.07-.3-61.606-.444l-61.588-1.006c-41.056-.743-82.1-1.933-123.154-2.889-41.038-1.39-82.088-2.52-123.119-4.123l-61.549-2.495C97.627,27.9,77.113,27.061,56.606,25.877Z" transform="translate(-56.606 -25.877)" fill="#fff"/>
      </g>
      <g id="Group_2694" data-name="Group 2694" transform="translate(648 54.96)">
        <path id="Path_2426" data-name="Path 2426" d="M199.812,40.087c9.308-.928,18.6-1.333,27.9-1.55,9.294-.252,18.584-.192,27.871-.068,9.283.22,18.566.508,27.846,1.105,9.276.565,18.552,1.319,27.817,2.6-9.308.935-18.6,1.34-27.9,1.557-9.294.249-18.584.188-27.871.06-9.283-.227-18.566-.515-27.846-1.112C218.353,42.113,209.077,41.363,199.812,40.087Z" transform="translate(-199.812 -38.363)" fill="#fff"/>
      </g>
      <g id="Group_2695" data-name="Group 2695" transform="translate(266.701 16.288)">
        <path id="Path_2427" data-name="Path 2427" d="M137.133,27.632c-13.392,3.053-25.145,10.079-32.32,20.752a49.9,49.9,0,0,0-4.471,8.54c-1.51,2.9-2.125,6.141-3.174,9.28A37.558,37.558,0,0,0,96.13,71.07l-.992,4.94c-.366,3.344-.7,6.721-1.283,10.161-.6-3.38-.97-6.827-1.329-10.3A90.926,90.926,0,0,1,93.084,65.4a50.117,50.117,0,0,1,7.311-19.988A41.357,41.357,0,0,1,116.654,31.5,39.334,39.334,0,0,1,137.133,27.632Z" transform="translate(-92.526 -27.482)" fill="#fff"/>
      </g>
      <g id="Group_2696" data-name="Group 2696" transform="translate(283.085 18.532)">
        <path id="Path_2428" data-name="Path 2428" d="M232.815,28.113a30.345,30.345,0,0,1,13.555,17.61c2.111,7.609-.117,15.947-4.187,22.419-3.966,6.685-9.468,12.126-15.247,17A144.431,144.431,0,0,1,208.431,98.1l-.8.48-.981-.156c-9.031-1.429-18.15-2.769-27.252-3.938-9.12-1.13-18.236-2.271-27.38-3.064-9.141-.867-18.3-1.507-27.466-1.713-9.162-.224-18.378-.078-27.419,1.855,8.732-3.184,18.14-4.03,27.373-4.666a274.17,274.17,0,0,1,27.825.11c9.258.519,18.5,1.255,27.693,2.349s18.357,2.3,27.519,3.92l-1.773.327a176.4,176.4,0,0,0,18.14-12.183C229.538,76.9,234.965,71.98,238.9,66.07c4.016-5.8,6.44-12.834,5.175-19.853C242.979,39.177,238.452,32.84,232.815,28.113Z" transform="translate(-97.136 -28.113)" fill="#fff"/>
      </g>
      <g id="Group_2697" data-name="Group 2697" transform="translate(35.422 12.518)">
        <path id="Path_2429" data-name="Path 2429" d="M34.588,26.421c-1.83,2.5-2.211,5.487-2.74,8.359-.409,2.918-.622,5.882-.793,8.857l-.419,9.017c-.163,3.035-.277,6.085-.75,9.2a51.027,51.027,0,0,1-2.378-18.424,38.913,38.913,0,0,1,1.653-9.3,20.814,20.814,0,0,1,2-4.379A8.162,8.162,0,0,1,34.588,26.421Z" transform="translate(-27.451 -26.421)" fill="#fff"/>
      </g>
      <g id="Group_2698" data-name="Group 2698" transform="translate(19.773 12.362)">
        <path id="Path_2430" data-name="Path 2430" d="M30.395,26.69c-1.333,2.733-1.67,5.466-2.729,8.224A26.442,26.442,0,0,0,26,39.157a12.764,12.764,0,0,0-.021,4.546,66.09,66.09,0,0,1,.889,9.045,36.442,36.442,0,0,1-1.08,9.2l-.355.036a26.165,26.165,0,0,1-2.353-9.1,30.117,30.117,0,0,1,.956-9.3,21.4,21.4,0,0,0,.825-4.585c.075-1.542-.2-3.174-.068-4.787a11.526,11.526,0,0,1,1.631-4.567,6.768,6.768,0,0,1,3.806-3.277Z" transform="translate(-23.048 -26.377)" fill="#fff"/>
      </g>
      <g id="Group_2699" data-name="Group 2699" transform="translate(788.878 40.115)">
        <path id="Path_2431" data-name="Path 2431" d="M246.588,34.186c-1.83,2.5-2.211,5.487-2.74,8.356-.409,2.921-.622,5.885-.793,8.86l-.419,9.017c-.163,3.035-.277,6.085-.75,9.2A51.028,51.028,0,0,1,239.508,51.2a38.971,38.971,0,0,1,1.653-9.3,20.977,20.977,0,0,1,2-4.379A8.132,8.132,0,0,1,246.588,34.186Z" transform="translate(-239.451 -34.186)" fill="#fff"/>
      </g>
      <g id="Group_2700" data-name="Group 2700" transform="translate(773.229 39.959)">
        <path id="Path_2432" data-name="Path 2432" d="M242.395,34.455c-1.333,2.73-1.67,5.463-2.73,8.224A26.444,26.444,0,0,0,238,46.922a12.764,12.764,0,0,0-.021,4.546,66.084,66.084,0,0,1,.888,9.045,36.437,36.437,0,0,1-1.08,9.2l-.355.036a26.164,26.164,0,0,1-2.353-9.1,30.115,30.115,0,0,1,.956-9.3,21.4,21.4,0,0,0,.825-4.585c.075-1.542-.2-3.177-.068-4.787a11.527,11.527,0,0,1,1.631-4.567,6.768,6.768,0,0,1,3.806-3.277Z" transform="translate(-235.048 -34.142)" fill="#fff"/>
      </g>
      <g id="Group_2701" data-name="Group 2701" transform="translate(213.465 248.08)">
        <path id="Path_2433" data-name="Path 2433" d="M77.547,115.28q22.524.912,45.019,2.154l44.983,2.594,44.962,2.939c14.991.917,29.961,2.147,44.941,3.224l-.615.078q27.2-8.722,54.5-17.1,27.279-8.476,54.711-16.469-26.927,9.553-54,18.652-27.034,9.228-54.206,18.026l-.3.1-.32-.021c-14.984-1.013-29.978-1.877-44.951-3.049l-44.934-3.33L122.427,119.4Q99.978,117.476,77.547,115.28Z" transform="translate(-77.547 -92.701)" fill="#fff"/>
      </g>
      <g id="Group_2702" data-name="Group 2702" transform="translate(292.053 54.889)">
        <path id="Path_2434" data-name="Path 2434" d="M99.783,63.865a20.432,20.432,0,0,1,3.508-13.648,25.171,25.171,0,0,1,11.533-8.739c9.141-3.8,19.085-3.152,28.354-3,9.4.409,18.939,1.137,28.141,3.8a69.066,69.066,0,0,1,13.225,5.363A105.51,105.51,0,0,1,196.371,55.4c-8.288-4.432-16.7-8.579-25.728-10.467-9-1.951-18.293-2.577-27.6-2.9-9.319-.259-18.684-.917-27.274,2a23.173,23.173,0,0,0-11.1,7.229A20.891,20.891,0,0,0,99.783,63.865Z" transform="translate(-99.659 -38.343)" fill="#f9f9f9"/>
      </g>
      <g id="Group_2703" data-name="Group 2703" transform="translate(310.254 25.342)">
        <path id="Path_2435" data-name="Path 2435" d="M166.523,68.3l-2.84-2.136c.075-.1,7.755-10.513,4.03-19.295C164.9,40.225,156.352,35.96,142.3,34.18c-14.078-1.784-23.933.419-29.3,6.557-7.172,8.2-3.913,20.887-3.881,21.015l-3.433.91c-.16-.594-3.767-14.657,4.638-24.267,6.195-7.08,17.1-9.688,32.423-7.741,15.407,1.955,24.91,6.945,28.247,14.838C175.5,56.172,166.889,67.8,166.523,68.3Z" transform="translate(-104.78 -30.029)" fill="#fff"/>
      </g>
      <g id="Group_2704" data-name="Group 2704" transform="translate(283.92 111.18)">
        <path id="Path_2436" data-name="Path 2436" d="M203.139,65.436a58.931,58.931,0,0,1-1.763,48.921s-12.052-16.935-80.257-16.935c-16.171,0-23.311,2.353-23.311,2.353S95.139,84.418,102.983,80.1c0,0-3.913-20.937,11.078-24.384s42.041,0,42.041,0Z" transform="translate(-97.371 -54.181)" fill="#fff"/>
      </g>
      <g id="Group_2705" data-name="Group 2705" transform="translate(370.703 115.777)">
        <path id="Path_2437" data-name="Path 2437" d="M128.016,107.751l-6.227-3.43c10.786-19.554,1.734-46.245,1.638-46.512l6.714-2.335C130.564,56.683,140.348,85.389,128.016,107.751Z" transform="translate(-121.789 -55.475)" fill="#100e0f"/>
      </g>
      <g id="Group_2706" data-name="Group 2706" transform="translate(284.966 109.798)">
        <path id="Path_2438" data-name="Path 2438" d="M97.665,60.156a31.3,31.3,0,0,1,9.2-3.707,78.384,78.384,0,0,1,9.8-1.862,145.612,145.612,0,0,1,19.917-.739,237.669,237.669,0,0,1,39.457,4.986c12.976,2.655,25.777,5.889,38.568,8.956,6.4,1.507,12.823,2.9,19.305,3.888a67.615,67.615,0,0,0,19.6.707c-6.429,1.674-13.21,1.482-19.81,1.024-6.614-.647-13.157-1.756-19.665-2.946-13.008-2.456-25.816-5.594-38.707-8.149a314.629,314.629,0,0,0-38.9-5.747,147.529,147.529,0,0,0-19.618-.252C110.324,56.691,103.678,57.423,97.665,60.156Z" transform="translate(-97.665 -53.793)" fill="#fff"/>
      </g>
      <g id="Group_2707" data-name="Group 2707" transform="translate(346.088 187.615)">
        <path id="Path_2439" data-name="Path 2439" d="M213.985,77.927l-8.96,14.412c-3.025,4.78-5.974,9.607-9.056,14.344l-.544.835-.839-.6c-5.544-4.009-11.9-6.9-18.278-9.557-6.429-2.584-13-4.851-19.6-7-13.235-4.222-26.751-7.723-40.3-10.7l2.132-1.827,1.976,39.052c.707,13.015,1.077,26.051,1.631,39.073l0,.046-.007.121a3.416,3.416,0,0,0,.643,1.383,9.562,9.562,0,0,0,1.457,1.425,19.952,19.952,0,0,0,3.8,2.164,46.651,46.651,0,0,0,8.594,2.769c2.95.714,5.96,1.244,8.981,1.663,3.017.48,6.06.793,9.1,1.148-3.056-.149-6.124-.21-9.177-.522-3.053-.259-6.106-.633-9.137-1.2a47.662,47.662,0,0,1-8.988-2.381,19.309,19.309,0,0,1-4.258-2.182c-1.258-1.056-2.751-2-2.975-4.485l0,.16c-.91-13-2-25.994-2.758-39.009l-2.413-39.03-.146-2.339,2.278.512q20.562,4.638,40.53,11.2a203.576,203.576,0,0,1,19.668,7.542c6.39,2.921,12.755,6.063,18.41,10.445l-1.375.231c3.188-4.67,6.507-9.251,9.756-13.879Z" transform="translate(-114.863 -75.688)" fill="#f9f9f9"/>
      </g>
    </g>
    <g id="Group_2709" data-name="Group 2709" transform="translate(290.533 212.44)">
      <path id="Path_2440" data-name="Path 2440" d="M111.872,76.23a356.068,356.068,0,0,1-7.051,37.1A352.166,352.166,0,0,1,94.312,149.61a351.5,351.5,0,0,1,7.055-37.1A355.361,355.361,0,0,1,111.872,76.23Z" transform="translate(-94.312 -76.23)" fill="#fff"/>
    </g>
    <g id="Group_2710" data-name="Group 2710" transform="translate(312.17 212.753)">
      <path id="Path_2441" data-name="Path 2441" d="M111.691,76.318a353.455,353.455,0,0,1-3.888,37.428,348.783,348.783,0,0,1-7.4,36.894,349.933,349.933,0,0,1,3.888-37.428A353.7,353.7,0,0,1,111.691,76.318Z" transform="translate(-100.4 -76.318)" fill="#fff"/>
    </g>
    <g id="Group_2711" data-name="Group 2711" transform="translate(332.489 212.44)">
      <path id="Path_2442" data-name="Path 2442" d="M112.766,76.23a364.9,364.9,0,0,1-1.521,38.256,361.936,361.936,0,0,1-5.061,37.946,360.1,360.1,0,0,1,1.521-38.252A365.944,365.944,0,0,1,112.766,76.23Z" transform="translate(-106.117 -76.23)" fill="#fff"/>
    </g>
  </g>
</svg>
