<?xml version="1.0" encoding="utf-8"?>
<!-- Generator: Adobe Illustrator 24.0.1, SVG Export Plug-In . SVG Version: 6.00 Build 0)  -->
<svg version="1.1" id="圖層_1" xmlns="http://www.w3.org/2000/svg" xmlns:xlink="http://www.w3.org/1999/xlink" x="0px" y="0px"
	 viewBox="0 0 128 52" style="enable-background:new 0 0 128 52;" xml:space="preserve">
<style type="text/css">
	.st0{fill:#743CF5;}
</style>
<g id="Group_6" transform="translate(-1123.699 -92.074)">
	<g id="Group_1" transform="translate(1123.699 132.336)">
		<path id="Path_7" d="M1.7,6.4c0.6,0.2,1.2,0.3,1.8,0.3c0.9,0,1.4-0.3,1.5-0.7S4.6,5.4,3.7,5.2C2.5,4.8,1.9,4.3,2,3.6
			c0.2-0.9,1.4-1.6,3.2-1.6C5.8,2,6.4,2.1,7,2.3L6.5,3.1C6,3,5.5,2.9,5,2.9c-0.9,0-1.3,0.3-1.4,0.6C3.6,3.9,4,4.1,4.9,4.4
			C6.2,4.8,6.7,5.3,6.6,6C6.4,6.9,5.1,7.6,3.2,7.6c-0.7,0-1.4-0.1-2-0.3L1.7,6.4z"/>
		<path id="Path_8" d="M11,5.2l1.8,2.3h-1.9L9.8,5.9L9.3,6.2L9,7.5H7.4l1.1-5.6h1.6L9.5,5.3h0C9.6,5.2,9.8,5,10,4.8l1.5-1.2h1.9
			L11,5.2z"/>
		<path id="Path_9" d="M14.2,3.9c0.7-0.2,1.4-0.3,2.2-0.3c1.9,0,2.3,0.8,2.1,1.6l-0.3,1.4c-0.1,0.3-0.1,0.6-0.1,0.9h-1.5l0-0.4h0
			c-0.5,0.3-1.1,0.5-1.7,0.5c-1.1,0-1.7-0.5-1.6-1.2c0.2-1,1.7-1.5,3.6-1.5c0.1-0.4-0.1-0.7-1-0.7c-0.5,0-1.1,0.1-1.6,0.3L14.2,3.9z
			 M16.8,5.6c-0.9,0-1.8,0.1-1.9,0.7c-0.1,0.4,0.3,0.5,0.7,0.5c0.4,0,1.1-0.2,1.1-0.7L16.8,5.6z"/>
		<path id="Path_10" d="M20.4,3.6l0.1-0.7l1.7-0.3l-0.2,1h1.3l-0.1,0.8h-1.3l-0.3,1.7c-0.1,0.5,0.1,0.7,0.6,0.7c0.2,0,0.4,0,0.5,0
			l-0.1,0.8c-0.4,0.1-0.7,0.1-1.1,0.1c-1.8,0-1.6-1-1.5-1.4l0.4-1.8h-0.8l0.1-0.8L20.4,3.6z"/>
		<path id="Path_11" d="M25.2,5.9c-0.1,0.7,0.6,0.9,1.5,0.9c0.5,0,1-0.1,1.5-0.2l0.1,0.7c-0.7,0.2-1.3,0.2-2,0.2
			c-1.9,0-2.8-0.8-2.6-2c0.2-1.1,1.4-2.1,3.2-2.1c1.5,0,2.3,0.7,2.1,1.9c0,0.1-0.1,0.3-0.1,0.4H25.2z M27.5,5.2
			c0.1-0.4-0.1-0.9-0.9-0.9c-0.6,0-1.1,0.3-1.3,0.9H27.5z"/>
		<path id="Path_12" d="M32.3,6.4c0.6,0.2,1.2,0.3,1.8,0.3c0.9,0,1.4-0.3,1.5-0.7s-0.3-0.6-1.2-0.9c-1.2-0.4-1.9-0.9-1.8-1.6
			c0.2-0.9,1.4-1.6,3.2-1.6c0.6,0,1.2,0.1,1.8,0.2l-0.5,0.9c-0.5-0.2-1-0.2-1.5-0.2c-0.9,0-1.3,0.3-1.4,0.6
			c-0.1,0.4,0.3,0.6,1.3,0.9c1.3,0.4,1.8,0.9,1.6,1.6c-0.2,0.9-1.4,1.6-3.4,1.6c-0.7,0-1.4-0.1-2-0.3L32.3,6.4z"/>
		<path id="Path_13" d="M39.1,3.6l0.1-0.7l1.7-0.3l-0.2,1H42l-0.1,0.8h-1.3l-0.3,1.7c-0.1,0.5,0.1,0.7,0.6,0.7c0.2,0,0.4,0,0.5,0
			l-0.1,0.8c-0.4,0.1-0.7,0.1-1.1,0.1c-1.8,0-1.6-1-1.5-1.4l0.4-1.8h-0.8l0.1-0.8L39.1,3.6z"/>
		<path id="Path_14" d="M48,5.5c-0.3,1.5-1.9,2.1-3.2,2.1c-1.6,0-2.7-0.7-2.4-2c0.3-1.3,1.6-2.1,3.3-2.1C47.3,3.5,48.2,4.4,48,5.5z
			 M45.4,4.3c-0.7,0-1.4,0.5-1.5,1.3c-0.1,0.7,0.2,1.3,1,1.3c0.7,0,1.3-0.6,1.4-1.3C46.4,5,46.2,4.3,45.4,4.3z"/>
		<path id="Path_15" d="M50.8,4.3c0.4-0.5,1-0.8,1.7-0.8c0.1,0,0.2,0,0.4,0l-0.2,1c-0.1,0-0.3,0-0.4,0c-0.7-0.1-1.3,0.3-1.5,1
			l-0.4,2h-1.6l0.5-2.7c0.1-0.5,0.1-0.9,0.2-1.2h1.4L50.8,4.3L50.8,4.3z"/>
		<path id="Path_16" d="M54.5,5.9c-0.1,0.7,0.6,0.9,1.5,0.9c0.5,0,1-0.1,1.5-0.2l0.1,0.7c-0.7,0.2-1.3,0.2-2,0.2
			c-1.9,0-2.8-0.8-2.6-2c0.2-1.1,1.4-2.1,3.2-2.1c1.5,0,2.3,0.7,2.1,1.9c0,0.1-0.1,0.3-0.1,0.4H54.5z M56.8,5.2
			c0.1-0.4-0.1-0.9-0.9-0.9c-0.6,0-1.1,0.3-1.3,0.9H56.8z"/>
	</g>
	<path id="Path_17" d="M1134.4,120h6l-0.4,2.1h6.6l0.3-1.5l2.2-11.2l0.6-2.9l0.5-2.6h-20.4l-3.7,19.1h7.7L1134.4,120z M1137,106.6h6
		l-2.1,10.8h-6L1137,106.6z"/>
	<path id="Path_18" d="M1211.2,130.7c-0.1,2.6,0,5.2,0.4,7.7c-1.6,0.1-4,0.4-5.7,0.6c-0.1-2.7,0-5.4,0.4-8.1L1211.2,130.7z"/>
	<path id="Path_19" d="M1194.3,131.1c-0.7,2.7-1.6,5.4-2.7,8.1c-1.6-0.2-3.9-0.4-5.5-0.6c1.3-2.5,2.4-5.1,3.4-7.7L1194.3,131.1z"/>
	<path id="Path_20" d="M1217,125.3l-3.3,16.8h8.6l0.4-1.8h9.7l-0.3,1.5h8.8l3.2-16.4L1217,125.3z M1232.9,137.6h-9.6l1.9-9.9h9.6
		L1232.9,137.6z"/>
	<path id="Path_21" d="M1224.6,121.3l-0.2,1l-0.3,1.4h13.6l0.4-1.8l0.1-0.6L1224.6,121.3z"/>
	<path id="Path_22" d="M1239.2,110.1c-1.6-1.1-1.1-1.9-0.2-3.1l-8.3,0c-4.5,5.5-10.4,9.6-17.1,12c2,1,4,2.2,5.9,3.6l3-1.5l3.1-1.6
		c2.7-1.4,5.3-3,7.6-5c3.2,3.3,6.9,6.1,10.9,8.4c0,0,4.4-3.1,6.8-4.5C1246,116.3,1239.7,110.9,1239.2,110.1z"/>
	<path d="M1211.5,122.1l-5.3,0.5c0.2,1.1,0.3,1.6,0.3,1.7c-1.6,0-3,0.1-3.9,0.1c3.1-2,11.3-8.5,10.5-8.9l-4.5-2
		c-1.7,1.7-3.6,3.3-5.5,4.7l-1.1-0.7c0,0,8.5-7.4,7.9-7.6l-4.9-1.5c-2.3,2.4-4.7,4.7-7.3,6.9l-0.5-0.2l-4,2.9c2,1.2,4.3,2.7,5.5,3.6
		c-0.3,0.3-2.8,1.8-4,2.4c-1.2,0-2.4-0.1-3.5-0.2l0.6,3.7c0.1,0.6,3.7,0.4,6,0.3l-2.6,13.5h5.9l2.7-13.7l1.6,0l1.7-0.1
		c0.1,0.5,0.2,0.9,0.3,1.4c1.8-0.3,3.8-0.7,5.9-0.9C1212.9,126.5,1212.2,123.7,1211.5,122.1z"/>
	<path id="Path_25" d="M1152.3,116.5h7l0.4-2h3.4l-0.4,2h5.5l3-15.3h2.2l0.6-2.8h-2.2l0.8-4.4h-5.5l-0.8,4.4h-3.4l0.8-4.3l-7,0
		l-0.8,4.4h-2.9l-0.6,2.8h2.9L1152.3,116.5z M1161,108h3.4l-0.9,4.7h-3.4L1161,108z M1162.3,101.3h3.4l-0.9,4.7h-3.4L1162.3,101.3z"
		/>
	<g>
		<path class="st0" d="M1166.3,121h2.8l0.5-2.4h-19l-0.5,2.4h7.1c-3.7,2-7.5,3.6-11.5,4.9c1.9,0.8,3.6,1.7,5.3,2.7
			c2.7-1.1,5.4-2.3,8-3.7c2.1,1.8,4.6,3.2,7.3,3.9c1.9-0.8,3.6-1.7,5.3-2.9c0,0-5.7-2.6-7.7-3.8
			C1164.8,121.8,1165.7,121.4,1166.3,121z"/>
		<path class="st0" d="M1192.7,100.9c0.2,1.5,0.3,3,0.2,4.5c0.9-0.3,2.3-0.8,3.3-1.2c-0.1-1.5-0.3-3-0.6-4.4L1192.7,100.9z"/>
		<path class="st0" d="M1201.7,104.2c-0.1-1.5-0.3-3-0.6-4.4l-2.8,1.2c0.2,1.5,0.3,3,0.2,4.5C1199.3,105,1200.7,104.5,1201.7,104.2z
			"/>
		<path class="st0" d="M1182.2,102.2l0.2-1.1h2.2l0.5-2.4h-8.2l-0.5,2.4h0l0,0.2l-0.6,3.3l-1.1,5.8c-0.5,2.3-1.5,4.4-2.9,6.2
			l1.8,1.1c1.2,0.7,2.3,1.4,3.3,2.1c2.6-2.6,3.9-9.3,4-9.8h2.5l-0.2,1.2l-0.6,3.3l-1.1,5.8c-0.5,2.3-1.5,4.4-2.9,6.2l1.8,1.1
			c1.2,0.7,2.3,1.4,3.3,2.1c2.6-2.6,3.9-9.3,4-9.8l0.6-3.3l0.9-4.6l0.4-2.1h3.9l0.6-3.3l-12.5,0L1182.2,102.2z"/>
	</g>
</g>
</svg>
