<svg id="圖層_1" data-name="圖層 1" xmlns="http://www.w3.org/2000/svg" viewBox="0 0 20 20"><defs><style>.cls-1{fill:none;}.cls-2{fill:#743cf5;}</style></defs><title>nav1</title><g id="Menu"><rect id="Rectangle_1446" data-name="Rectangle 1446" class="cls-1" width="20" height="20"/></g><path id="user-solid" class="cls-2" d="M10,10A4.39,4.39,0,1,0,5.61,5.61,4.39,4.39,0,0,0,10,10Zm3.07,1.1H12.5a6,6,0,0,1-5,0H6.93a4.61,4.61,0,0,0-4.61,4.6v1.43A1.64,1.64,0,0,0,4,18.77H16a1.64,1.64,0,0,0,1.65-1.64V15.7A4.61,4.61,0,0,0,13.07,11.1Z"/></svg>