<svg id="圖層_1" data-name="圖層 1" xmlns="http://www.w3.org/2000/svg" viewBox="0 0 20 20"><defs><style>.cls-1{fill:#743cf5;}</style></defs><title>nav1</title><path id="shopping-cart-solid" class="cls-1" d="M17.5,11.42,19,4.92a.75.75,0,0,0-.56-.9l-.17,0H6L5.69,2.6A.75.75,0,0,0,5,2H1.75A.76.76,0,0,0,1,2.75v.5A.76.76,0,0,0,1.75,4H3.93l2.2,10.73a1.75,1.75,0,1,0,2.39.65,1.57,1.57,0,0,0-.3-.38h6.56a1.75,1.75,0,1,0,2.47,0,1.9,1.9,0,0,0-.49-.35l.18-.75a.76.76,0,0,0-.57-.9l-.17,0H7.82l-.21-1h9.16A.74.74,0,0,0,17.5,11.42Z"/></svg>