<?xml version="1.0" encoding="utf-8"?>
<!-- Generator: Adobe Illustrator 24.0.1, SVG Export Plug-In . SVG Version: 6.00 Build 0)  -->
<svg version="1.1" id="圖層_1" xmlns="http://www.w3.org/2000/svg" xmlns:xlink="http://www.w3.org/1999/xlink" x="0px" y="0px"
	 viewBox="0 0 129 43" style="enable-background:new 0 0 129 43;" xml:space="preserve">
<style type="text/css">
	.st0{opacity:0.39;}
	.st1{fill:#FFFFFF;}
	.st2{fill:#743CF5;}
</style>
<g id="Component_22_1" transform="translate(0.518 0.312)">
	<g id="Group_360" transform="translate(-0.503 -0.306)" class="st0">
		<g id="Group_358" transform="translate(20.294 28.151)">
			<g>
				<path class="st1" d="M78.7,9.5c0,0.5-0.6,0.8-1.2,0.8c-0.2,0-0.4,0-0.5-0.1c0.1,0,0.3,0.1,0.4,0.1c0.6,0,1.1-0.3,1.1-0.8
					c0-0.3-0.2-0.5-0.5-0.6C78.5,8.9,78.7,9.2,78.7,9.5z"/>
				<path class="st1" d="M77.2,7.6c-0.1,0-0.2,0-0.3,0h-4c0,0,0,0,0,0H77.2z"/>
				<path class="st1" d="M82.9,9.3c0,0.1,0,0.3-0.1,0.4c0,0.1,0,0.3-0.1,0.4c0,0,0,0,0,0.1c0,0.1-0.1,0.2-0.1,0.3
					c0,0.1-0.1,0.1-0.1,0.2c-0.2,0.4-0.6,0.8-0.9,1.2c0.7-0.7,1.1-1.5,1-2.5V8.9c0-0.1-0.1-0.3-0.1-0.4c0-0.2,0-0.3-0.1-0.4V8
					c-0.1-0.2-0.1-0.3-0.2-0.4h-3.9c-0.1,0-0.2,0-0.3,0h4.3c0.1,0.1,0.1,0.3,0.2,0.4v0.1c0,0.1,0.1,0.3,0.1,0.4
					c0,0.1,0.1,0.3,0.1,0.4C82.7,9.1,82.7,9.3,82.9,9.3z"/>
			</g>
			<g>
				<path class="st1" d="M78.7,9.5c0,0.5-0.6,0.8-1.2,0.8c-0.2,0-0.4,0-0.5-0.1c0.1,0,0.3,0.1,0.4,0.1c0.6,0,1.1-0.3,1.1-0.8
					c0-0.3-0.2-0.5-0.5-0.6C78.5,8.9,78.7,9.2,78.7,9.5z"/>
			</g>
		</g>
		<g id="Group_359" transform="translate(0.503 0.498)">
			<g>
				<path class="st2" d="M92.7,35.2C92.7,35.3,92.7,35.3,92.7,35.2l4,0c0.1,0,0.2,0,0.3,0H92.7z M97.9,36.5c0.3,0.1,0.5,0.4,0.5,0.6
					c0,0.5-0.6,0.8-1.1,0.8c-0.2,0-0.3,0-0.4-0.1c0.2,0.1,0.3,0.1,0.5,0.1c0.6,0,1.2-0.3,1.2-0.8C98.5,36.8,98.3,36.6,97.9,36.5z
					 M102.4,36.5c0-0.1-0.1-0.3-0.1-0.4c0-0.1-0.1-0.3-0.1-0.4v-0.1c-0.1-0.1-0.1-0.3-0.2-0.4h-4.3c0.1,0,0.2,0,0.3,0h3.9
					c0.1,0.1,0.1,0.2,0.2,0.4v0.1c0.1,0.1,0.1,0.2,0.1,0.4c0,0.1,0.1,0.3,0.1,0.4v0.5c0.1,0.9-0.3,1.8-1,2.5
					c0.4-0.3,0.7-0.8,0.9-1.2c0-0.1,0.1-0.1,0.1-0.2c0-0.1,0.1-0.2,0.1-0.3c0,0,0,0,0-0.1c0-0.1,0.1-0.3,0.1-0.4
					c0-0.2,0-0.3,0.1-0.4C102.5,36.9,102.5,36.7,102.4,36.5z"/>
				<path class="st2" d="M126.3,16.1C125,8.4,118.7,4,109.9,4.6c-0.5,0-0.9,0.1-1.5,0.2L108,4.9c-2.4,0.5-4.9,0.9-7.4,1.1H27.1
					c-2.5-0.2-5-0.6-7.4-1.1l-0.5-0.1c-0.5-0.1-0.9-0.1-1.5-0.2C8.9,4,2.7,8.4,1.4,16.1c-0.1,1-0.2,1.9-0.1,2.9
					c-0.1,3.5,1.2,7,3.7,9.9c3.1,3.5,7.6,5.7,12.9,6.2c2.1,0.2,4.1,0.3,6.2,0.2h0.5c-0.3,0.6-0.5,1.2-0.5,1.8c0,2.7,2.9,4.9,6.5,4.9
					c3.6,0,6.5-2.2,6.5-4.9c0-0.6-0.1-1.3-0.5-1.8h55c-0.4,0.6-0.5,1.2-0.5,1.8c0,2.7,3,4.9,6.5,4.9c0.6,0,1.3-0.1,1.8-0.2
					c2.5-0.5,4.4-2.4,4.5-4.7c0-0.6-0.1-1.3-0.5-1.8h2.1c1.5,0,3.1-0.1,4.6-0.3h0.6c9.4-1,16.2-8.2,15.9-16.3
					C126.5,17.9,126.4,17,126.3,16.1z M35.6,37.1c0,2.2-2.3,3.9-5.2,3.9c-0.9,0-1.8-0.2-2.5-0.5c-0.3-0.1-0.5-0.2-0.7-0.4
					c-1.2-0.7-2-1.8-2-3v-0.6c0-0.1,0-0.2,0.1-0.3c0-0.1,0.1-0.2,0.1-0.4c0-0.1,0.1-0.2,0.1-0.2c0-0.1,0.1-0.2,0.2-0.3h4.4
					c-0.1,0-0.2,0-0.3,0c-0.8,0.2-1.4,0.7-1.6,1.3c0,0.1,0,0.1,0,0.2c0,0.1,0,0.2,0,0.3c0,1,1,1.8,2.3,1.8c1,0,1.9-0.5,2.2-1.3
					c0-0.1,0.1-0.2,0.1-0.3c0-0.1,0-0.2,0-0.2c0-0.3-0.1-0.6-0.3-0.9c-0.1-0.1-0.2-0.2-0.3-0.3c-0.3-0.3-0.7-0.5-1.1-0.5
					c-0.1,0-0.2,0-0.3,0H35c0.1,0.1,0.1,0.1,0.1,0.2c0,0,0,0,0,0c0,0,0,0,0.1,0.1c0,0.1,0,0.1,0.1,0.1c0,0,0.1,0,0.1,0.1
					c0,0.1,0.1,0.2,0.1,0.4c0,0,0,0,0,0.1c0,0,0,0,0,0.1c0,0,0,0.1,0,0.1c0,0,0,0,0,0c0,0,0,0,0,0.1V37.1z M30.4,36.3
					c0.7,0,1.1,0.4,1.1,0.8c0,0,0,0,0,0.1c0,0,0,0.1,0,0.1c0,0.1,0,0.1-0.1,0.1c-0.2,0.3-0.6,0.5-1.1,0.5c-0.6,0-1.2-0.4-1.2-0.8
					C29.2,36.7,29.7,36.3,30.4,36.3z M102.6,37.4c0,0.1,0,0.3-0.1,0.4c0,0,0,0,0,0.1c0,0.1-0.1,0.2-0.1,0.3c0,0.1-0.1,0.1-0.1,0.2
					c0,0.1-0.1,0.1-0.1,0.2c0,0.1-0.1,0.2-0.2,0.3c-0.1,0.2-0.2,0.3-0.3,0.4c0,0.1-0.1,0.1-0.1,0.1c0,0-0.1,0.1-0.1,0.1
					c-0.1,0.1-0.2,0.2-0.3,0.3c-0.1,0.1-0.2,0.1-0.2,0.2c-0.1,0.1-0.2,0.1-0.3,0.2c0,0-0.1,0.1-0.2,0.1c-0.1,0.1-0.2,0.1-0.3,0.2
					c-0.1,0.1-0.2,0.1-0.4,0.1c-0.3,0.1-0.5,0.2-0.8,0.3c-0.5,0.1-1,0.2-1.5,0.2c-2.9,0-5.3-1.7-5.3-3.9v-0.6c0-0.1,0-0.2,0.1-0.3
					c0-0.1,0.1-0.2,0.1-0.4c0-0.1,0.1-0.2,0.1-0.2c0-0.1,0.1-0.2,0.2-0.3h0.1c0,0,0,0,0,0H97c-0.1,0-0.2,0-0.3,0h0.2
					c-0.1,0-0.3,0-0.4,0.1c-0.1,0-0.2,0-0.3,0.1c-0.8,0.3-1.3,0.9-1.3,1.6c0,1,1,1.8,2.3,1.8c0.5,0,0.9-0.1,1.3-0.3c0,0,0,0,0,0
					c0.1,0,0.1-0.1,0.2-0.1c0.5-0.3,0.8-0.8,0.8-1.3c0-0.9-0.9-1.7-2-1.8H98c-0.1,0-0.2,0-0.3,0h4.3c0.1,0.1,0.1,0.3,0.2,0.4v0.1
					c0,0.1,0.1,0.3,0.1,0.4c0,0.1,0.1,0.3,0.1,0.4c0.1,0.2,0.1,0.4,0.2,0.4C102.6,37.1,102.6,37.2,102.6,37.4z M97.3,36.3
					c0.3,0,0.5,0.1,0.7,0.2c0,0,0,0,0,0c0.3,0.1,0.6,0.4,0.6,0.7c0,0.5-0.6,0.8-1.2,0.8c-0.2,0-0.4,0-0.5-0.1c-0.1,0-0.1,0-0.1-0.1
					h0c-0.3-0.2-0.6-0.4-0.6-0.7C96.1,36.7,96.6,36.3,97.3,36.3z M110.4,34c-0.2,0-0.4,0-0.6,0.1c-1.4,0.2-2.9,0.2-4.4,0.2
					c-0.5,0-1.1,0-1.7,0H24c-2.1,0.1-4,0-6.1-0.2c-4-0.4-7.6-1.9-10.4-4.2c2.9,2.1,6.3,3.5,10.3,3.8c2.1,0.2,4.1,0.3,6.2,0.2h81.3
					c1.5,0,3.1-0.1,4.6-0.3c0.2,0,0.5,0,0.6-0.1c3.7-0.4,6.9-1.7,9.5-3.6C117.4,32.2,114.1,33.6,110.4,34z M125.2,18.6
					c-0.4,7.1-6.6,13.2-14.9,14.1c-0.2,0-0.4,0-0.6,0.1c-1.4,0.2-2.9,0.2-4.4,0.2c-0.5,0-1.1,0-1.7,0H24c-2.1,0.1-4,0-6.1-0.2
					c-5-0.5-9.2-2.6-12.1-5.8c-2.1-2.3-3.2-5.2-3.5-8c0-0.9,0-1.8,0.1-2.6c0.2-1.1,0.5-2.1,0.9-3.1c0.8-1.9,2-3.5,3.5-4.7
					c2.6-2.1,6.3-3.2,10.7-2.9c0.5,0,0.8,0.1,1.3,0.2L19.3,6c2.4,0.5,5.1,0.9,7.6,1.1h73.8c2.5-0.2,5.1-0.6,7.6-1.1
					c0.1,0,0.1,0,0.2,0c0.1,0,0.1,0,0.2,0c0.5-0.1,0.9-0.1,1.3-0.2c4.4-0.3,8.2,0.8,10.8,2.9c1.5,1.2,2.7,2.8,3.5,4.7
					c0.3,0.9,0.7,2,0.9,3C125.2,17.1,125.4,17.8,125.2,18.6z"/>
			</g>
		</g>
	</g>
</g>
</svg>
