<?xml version="1.0" encoding="utf-8"?>
<!-- Generator: Adobe Illustrator 23.1.0, SVG Export Plug-In . SVG Version: 6.00 Build 0)  -->
<svg version="1.1" id="圖層_1" xmlns="http://www.w3.org/2000/svg" xmlns:xlink="http://www.w3.org/1999/xlink" x="0px" y="0px"
	 viewBox="0 0 300 120" style="enable-background:new 0 0 300 120;" xml:space="preserve">
<style type="text/css">
	.st0{fill-rule:evenodd;clip-rule:evenodd;}
</style>
<g id="Octicons">
	<g id="package">
		<path id="Shape" class="st0" d="M88.5,31.3v57.4c0,3.5,2.3,6.5,5.8,7.5l50,13.3c1.2,0.4,2.6,0.4,3.8,0l50-13.3
			c3.5-1,5.8-4,5.8-7.5V31.3c0-3.5-2.3-6.5-5.8-7.5l-50-13.4c-1.3-0.2-2.6-0.2-3.8,0l-50,13.4C90.8,24.8,88.5,27.8,88.5,31.3z
			 M142.3,101.1L96.2,88.9v-52l46.1,12.4V101.1z M96.2,29.2l19.2-5.2l50,13.3l-19.2,5.2L96.2,29.2z M196.1,88.9L150,101.1V49.3
			l15.4-4.2v18.8l15.4-4.1V41l15.4-4.1V88.9z M180.8,33.3l-50-13.3l15.4-4.1l50,13.3C196.1,29.2,180.8,33.3,180.8,33.3z"/>
	</g>
</g>
</svg>
