<svg id="Group_12" data-name="Group 12" xmlns="http://www.w3.org/2000/svg" width="52.218" height="17.819" viewBox="0 0 52.218 17.819">
  <g id="Group_10" data-name="Group 10" transform="translate(0 1.398)">
    <path id="Path_106" data-name="Path 106" d="M307.415,277.621c-.113-2.6-4.863-3.112-4.863-3.112a12.435,12.435,0,0,0-4.9.525l2.375-.241c5.826-.593,6.852,2.2,6.852,2.2,1.419,4.029-5.968,4.125-5.968,4.125s-27.137,5.155-31.813,5.131-10.235-3.1-11.128-4.826,3.662-1.081,3.662-1.081l9.063-1.421.006-.039-5.7.692a15.652,15.652,0,0,1-3.624.056s-4.828-.961-4.773,1.669,7.082,5.109,7.082,5.109,5.109,1.829,8.908,1.067a1.3,1.3,0,0,0-.92,2.006s.689,2.277,3.248,1.006c0,0-1.934.137-1.826-.381a1.646,1.646,0,0,1,1.057-1.978l.136-.969,3.473-1,20.919-4.044a2.153,2.153,0,0,0-.189,2.1,1.926,1.926,0,0,0,1.616.857s-.925-.449-.812-1.036c0,0,.757-1.923,1.724-1.735l.093-.66a16.753,16.753,0,0,0,4.741-.876S307.527,280.225,307.415,277.621Z" transform="translate(-256.601 -274.456)" fill="#743cf5"/>
    <path id="Path_107" data-name="Path 107" d="M328.142,335.358a.571.571,0,1,0,.644-.486h0A.57.57,0,0,0,328.142,335.358Z" transform="translate(-310.916 -320.324)" fill="#743cf5"/>
    <circle id="Ellipse_15" data-name="Ellipse 15" cx="0.659" cy="0.659" r="0.659" transform="translate(43.745 8.644)" fill="#743cf5"/>
  </g>
  <g id="Group_11" data-name="Group 11" transform="translate(1.398)">
    <path id="Path_106-2" data-name="Path 106-2" d="M313.223,271.813c-.113-2.6-4.863-3.112-4.863-3.112a12.43,12.43,0,0,0-4.9.525l2.375-.241c5.826-.593,6.852,2.2,6.852,2.2,1.419,4.029-5.968,4.124-5.968,4.124s-27.137,5.156-31.813,5.131-10.235-3.1-11.128-4.826,3.662-1.081,3.662-1.081l9.063-1.421.006-.039-5.7.692a15.666,15.666,0,0,1-3.624.055s-4.828-.961-4.773,1.669,7.082,5.109,7.082,5.109,5.109,1.829,8.908,1.067a1.3,1.3,0,0,0-.92,2.006s.689,2.277,3.247,1.006c0,0-1.934.136-1.826-.381a1.646,1.646,0,0,1,1.058-1.978l.136-.969,3.473-1,20.919-4.044a2.152,2.152,0,0,0-.189,2.1,1.927,1.927,0,0,0,1.616.857s-.925-.449-.812-1.036c0,0,.758-1.922,1.724-1.734l.093-.661a16.749,16.749,0,0,0,4.74-.876S313.336,274.417,313.223,271.813Z" transform="translate(-262.409 -268.647)" fill="#75fb4e"/>
    <path id="Path_107-2" data-name="Path 107-2" d="M333.951,329.55a.57.57,0,1,0,.644-.486h0A.57.57,0,0,0,333.951,329.55Z" transform="translate(-316.725 -314.516)" fill="#75fb4e"/>
    <circle id="Ellipse_15-2" data-name="Ellipse 15-2" cx="0.659" cy="0.659" r="0.659" transform="translate(43.745 8.644)" fill="#75fb4e"/>
  </g>
</svg>
